<svg xmlns="http://www.w3.org/2000/svg" width="496.159" height="496.152" viewBox="0 0 496.159 496.152">
  <g id="Grupo_835" data-name="Grupo 835" transform="translate(0 -0.003)">
    <path id="Caminho_647" data-name="Caminho 647" d="M496.159,248.085C496.159,111.062,385.089,0,248.083,0S0,111.063,0,248.085c0,137,111.07,248.07,248.083,248.07S496.159,385.086,496.159,248.085Z" fill="#f05423"/>
    <path id="Caminho_648" data-name="Caminho 648" d="M284.828,128.917a10.583,10.583,0,0,0-10.813.425l-95.137,61.791H143.714a10.583,10.583,0,0,0-10.583,10.582v92.728a10.583,10.583,0,0,0,10.583,10.583h35.164l95.137,61.79a10.584,10.584,0,0,0,16.348-8.876V138.218A10.583,10.583,0,0,0,284.828,128.917Z" fill="#fff"/>
  </g>
</svg>
