<svg xmlns="http://www.w3.org/2000/svg" width="48.911" height="47.444" viewBox="0 0 48.911 47.444">
  <path id="Path_map-marker-path" data-name="Path / map-marker-path" d="M41.614,34.568a7.723,7.723,0,1,1-7.285,10.3H31.317V39.717h3.012a7.7,7.7,0,0,1,7.285-5.149m0,5.149a2.574,2.574,0,1,0,2.574,2.574,2.574,2.574,0,0,0-2.574-2.574m0-23.168a3.681,3.681,0,1,0-3.681-3.681,3.681,3.681,0,0,0,3.681,3.681m0-13.978a10.3,10.3,0,0,1,10.3,10.3c0,7.7-10.3,19.127-10.3,19.127s-10.3-11.43-10.3-19.127a10.3,10.3,0,0,1,10.3-10.3M18.008,39.717H21.02v5.149H18.008a7.725,7.725,0,1,1-9.859-9.859V31.994H13.3v3.012a7.764,7.764,0,0,1,4.711,4.711m-7.285,0A2.574,2.574,0,1,0,13.3,42.291a2.574,2.574,0,0,0-2.574-2.574m0-36.04A7.725,7.725,0,0,1,13.3,18.685V21.7H8.149V18.685A7.725,7.725,0,0,1,10.723,3.677m0,5.149A2.574,2.574,0,1,0,13.3,11.4a2.574,2.574,0,0,0-2.574-2.574m12.871,36.04V39.717h5.149v5.149H23.594M13.3,29.42H8.149V24.271H13.3Z" transform="translate(-3 -2.57)" fill="#f05423"/>
</svg>
