<svg xmlns="http://www.w3.org/2000/svg" width="34.463" height="34.46" viewBox="0 0 34.463 34.46">
  <path id="Caminho_145" data-name="Caminho 145" d="M29.763-121.468h4.7v3.132h-4.7ZM0-121.468H4.7v3.132H0Zm18.8-10.963H15.665v-4.7H18.8Zm0-4.7M6.141-133.216l3.337,3.352-2.226,2.211-3.337-3.321Zm18.844,3.337,3.318-3.337,2.242,2.242-3.337,3.321Zm-7.755.581a9.4,9.4,0,0,1,9.4,9.4,9.415,9.415,0,0,1-4.7,8.145v2.82a1.566,1.566,0,0,1-1.568,1.565H14.1a1.566,1.566,0,0,1-1.568-1.565v-2.82a9.421,9.421,0,0,1-4.7-8.145,9.4,9.4,0,0,1,9.4-9.4m3.133,23.5v1.568a1.564,1.564,0,0,1-1.565,1.565H15.665a1.566,1.566,0,0,1-1.568-1.565V-105.8Zm-4.7-4.7H18.8v-3.337a6.251,6.251,0,0,0,4.7-6.061,6.264,6.264,0,0,0-6.265-6.265,6.264,6.264,0,0,0-6.265,6.265,6.251,6.251,0,0,0,4.7,6.061Z" transform="translate(0 137.131)" fill="#f05423"/>
</svg>
