<svg xmlns="http://www.w3.org/2000/svg" width="33.002" height="32.357" viewBox="0 0 33.002 32.357">
  <path id="Caminho_13" data-name="Caminho 13" d="M14.046,2.006a3.219,3.219,0,1,1,3.219,3.219,3.229,3.229,0,0,1-3.219-3.219m6.439,28.976V21.324H24.51L20.484,9.09a3.289,3.289,0,0,0-3.057-2.253h-.162A3.289,3.289,0,0,0,14.207,9.09l-1.449,4.185a5.5,5.5,0,0,1,2.9,4.989v12.88h4.828M8.411,14.079a2.476,2.476,0,0,0,2.415-2.415A2.475,2.475,0,0,0,8.411,9.252,2.475,2.475,0,0,0,6,11.664a2.476,2.476,0,0,0,2.415,2.415M-2.858,5.226A3.229,3.229,0,0,0,.362,2.006,3.229,3.229,0,0,0-2.858-1.213,3.229,3.229,0,0,0-6.077,2.006,3.229,3.229,0,0,0-2.858,5.226M.362,30.982V19.713H2.777V10.056A3.229,3.229,0,0,0-.442,6.836h-4.83a3.229,3.229,0,0,0-3.219,3.219v9.658h2.415V30.982Zm10.465,0V24.544h1.608V18.105a2.473,2.473,0,0,0-2.412-2.415H6.8a2.474,2.474,0,0,0-2.415,2.415v6.439H6v6.439Z" transform="translate(8.492 1.213)" fill="#858280"/>
</svg>
