<svg xmlns="http://www.w3.org/2000/svg" width="91.346" height="110.379" viewBox="0 0 91.346 110.379">
  <g id="Grupo_149" data-name="Grupo 149" transform="translate(-8680.033 -10925.741)">
    <path id="Caminho_160" data-name="Caminho 160" d="M362.556,219.1V201.246H358.75v20.935a1.9,1.9,0,0,0,2.754,1.713l7.613-3.806-1.7-3.407Z" transform="translate(8368.857 10760.649)" fill="#ff9e0d"/>
    <path id="Caminho_161" data-name="Caminho 161" d="M300.147,207.683l-4.859-2.43-1.7,3.407,7.613,3.806h0a1.9,1.9,0,0,0,2.754-1.7v-9.516h-3.806Z" transform="translate(8419.848 10760.649)" fill="#ff9e0d"/>
    <path id="Caminho_162" data-name="Caminho 162" d="M227.378,71.078a9.058,9.058,0,0,0,.19-1.8,9.47,9.47,0,0,0-10.3-9.478,9.454,9.454,0,0,0-5.3-5.072,9.26,9.26,0,0,0,.37-2.579,9.526,9.526,0,0,0-9.516-9.516h-.04a9.438,9.438,0,0,0-9.367-3.616,9.467,9.467,0,0,0-15.443,0,9.432,9.432,0,0,0-9.367,3.616h-.04a9.526,9.526,0,0,0-9.516,9.516,9.26,9.26,0,0,0,.37,2.579,9.453,9.453,0,0,0-5.3,5.072,9.47,9.47,0,0,0-10.3,9.478,9.056,9.056,0,0,0,.19,1.8,9.457,9.457,0,0,0,.445,15.729,9.526,9.526,0,0,0,7.145,12.765,9.535,9.535,0,0,0,9.349,7.772,9.363,9.363,0,0,0,4.885-1.376,9.535,9.535,0,0,0,8.437,5.183,9.418,9.418,0,0,0,5.71-1.952v19.049A13.37,13.37,0,0,1,166.633,141.6h-20.9v3.806h79.935V141.6h-20.9a13.37,13.37,0,0,1-13.355-13.355V109.2a9.418,9.418,0,0,0,5.71,1.952,9.535,9.535,0,0,0,8.437-5.183,9.362,9.362,0,0,0,4.885,1.376,9.535,9.535,0,0,0,9.356-7.772,9.526,9.526,0,0,0,7.145-12.765,9.457,9.457,0,0,0,.445-15.729Zm-3.654,13.081h0a1.9,1.9,0,0,0-.952,2.855,5.71,5.71,0,0,1-4.72,8.913,1.9,1.9,0,0,0-1.9,1.9,5.679,5.679,0,0,1-10.064,3.639,1.9,1.9,0,0,0-3.346.952,5.693,5.693,0,0,1-11.332-.784v-.727l10.366-5.173-1.7-3.407-11.419,5.71h0a1.9,1.9,0,0,0-1.053,1.694v28.515a17.128,17.128,0,0,0,6.408,13.355H177.386a17.128,17.128,0,0,0,6.408-13.355V88.313a1.9,1.9,0,0,0-1.053-1.7L171.322,80.9l-1.7,3.407,10.367,5.182v12.147a5.692,5.692,0,0,1-11.332.79,1.9,1.9,0,0,0-3.346-.952,5.679,5.679,0,0,1-10.064-3.645,1.9,1.9,0,0,0-1.9-1.9,5.71,5.71,0,0,1-4.732-8.905,1.9,1.9,0,0,0-.952-2.855,5.664,5.664,0,0,1-.6-10.489,1.9,1.9,0,0,0,.952-2.387,5.588,5.588,0,0,1-.381-2.009,5.607,5.607,0,0,1,7.261-5.461,1.9,1.9,0,0,0,2.382-1.437,5.672,5.672,0,0,1,4.981-4.451,1.9,1.9,0,0,0,1.432-2.872,5.574,5.574,0,0,1-.83-2.908,5.709,5.709,0,0,1,5.71-5.71,4.2,4.2,0,0,1,.556.057l.19.026h0a1.894,1.894,0,0,0,1.9-.952,5.592,5.592,0,0,1,6.971-2.558,1.9,1.9,0,0,0,2.388-.952,5.663,5.663,0,0,1,10.24,0,1.9,1.9,0,0,0,2.388.952,5.594,5.594,0,0,1,6.956,2.554,1.884,1.884,0,0,0,1.9.952l.19-.026a4.018,4.018,0,0,1,.571-.054,5.709,5.709,0,0,1,5.71,5.71,5.574,5.574,0,0,1-.83,2.908,1.9,1.9,0,0,0,1.432,2.872,5.672,5.672,0,0,1,4.981,4.451A1.9,1.9,0,0,0,216.5,63.82a5.5,5.5,0,0,1,5.589,1.423,5.712,5.712,0,0,1,1.672,4.037,5.588,5.588,0,0,1-.381,2.009,1.9,1.9,0,0,0,.952,2.387,5.664,5.664,0,0,1-.594,10.481Z" transform="translate(8540.006 10890.711)" fill="#ff9e0d"/>
    <path id="Caminho_163" data-name="Caminho 163" d="M227.5,183.75h3.806v3.806H227.5Z" transform="translate(8471.56 10774.339)" fill="#ff9e0d"/>
    <path id="Caminho_164" data-name="Caminho 164" d="M463.75,201.25h3.806v3.806H463.75Z" transform="translate(8286.695 10760.646)" fill="#ff9e0d"/>
    <path id="Caminho_165" data-name="Caminho 165" d="M350,96.25h3.806v3.806H350Z" transform="translate(8375.704 10842.807)" fill="#ff9e0d"/>
    <path id="Caminho_166" data-name="Caminho 166" d="M446.25,271.25h3.806v3.806H446.25Z" transform="translate(8300.389 10705.871)" fill="#ff9e0d"/>
    <path id="Caminho_167" data-name="Caminho 167" d="M393.75,157.5h3.806v3.806H393.75Z" transform="translate(8341.471 10794.88)" fill="#ff9e0d"/>
    <path id="Caminho_168" data-name="Caminho 168" d="M297.5,140h3.806v3.806H297.5Z" transform="translate(8416.785 10808.573)" fill="#ff9e0d"/>
    <path id="Caminho_169" data-name="Caminho 169" d="M210,262.5h3.806v3.806H210Z" transform="translate(8485.253 10712.718)" fill="#ff9e0d"/>
  </g>
</svg>
