<svg xmlns="http://www.w3.org/2000/svg" width="35.415" height="25.757" viewBox="0 0 35.415 25.757">
  <path id="Caminho_15" data-name="Caminho 15" d="M4.013,11.035l-.966-.8c-3.219-3.06-5.472-4.992-5.472-7.4A3.573,3.573,0,0,1,1.114-.717,3.773,3.773,0,0,1,4.013.571a3.773,3.773,0,0,1,2.9-1.287,3.471,3.471,0,0,1,3.54,3.543c0,2.412-2.253,4.345-5.472,7.4Zm16.1-17.707A6.44,6.44,0,0,0,13.67-.233a6.44,6.44,0,0,0,6.441,6.439A6.438,6.438,0,0,0,26.55-.233a6.438,6.438,0,0,0-6.439-6.439m0,9.82A3.38,3.38,0,0,1,16.73-.233a3.382,3.382,0,0,1,3.381-3.381A3.379,3.379,0,0,1,23.49-.233a3.379,3.379,0,0,1-3.379,3.381m0,4.668c-4.3,0-12.88,2.142-12.88,6.439v4.83H32.989v-4.83c0-4.3-8.58-6.439-12.877-6.439m9.82,8.209H10.292v-1.77c0-1.03,4.989-3.381,9.82-3.381,4.78,0,9.82,2.351,9.82,3.381Z" transform="translate(2.426 6.672)" fill="#858280"/>
</svg>
