<svg xmlns="http://www.w3.org/2000/svg" xmlns:xlink="http://www.w3.org/1999/xlink" width="70.221" height="49.964" viewBox="0 0 70.221 49.964">
  <defs>
    <clipPath id="clip-path">
      <rect id="Retângulo_114" data-name="Retângulo 114" width="70.221" height="49.964" fill="#fff"/>
    </clipPath>
  </defs>
  <g id="Grupo_271" data-name="Grupo 271" clip-path="url(#clip-path)">
    <path id="Caminho_227" data-name="Caminho 227" d="M6.781,2.906H27.295l-.329-.967A2.905,2.905,0,0,0,24.217,0H6.781A2.907,2.907,0,0,0,4.03,1.939L0,13.56v15.5A1.938,1.938,0,0,0,1.939,31H3.874a1.94,1.94,0,0,0,1.938-1.939v-7.92a2.892,2.892,0,0,1-1.744-3.7v0A2.9,2.9,0,0,1,6.781,15.5h.134l1.357-3.878h-4.4Z" transform="translate(0 0)" fill="#fff"/>
    <path id="Caminho_228" data-name="Caminho 228" d="M33.679,27.439q.584,0,1.152.056a6.963,6.963,0,0,1-.088-1.119,6.4,6.4,0,0,1,1.912-4.535l1.084-1.083V17.607L33.709,5.982A2.9,2.9,0,0,0,30.96,4.047H13.524a2.91,2.91,0,0,0-2.756,1.935L6.746,17.607V33.1a1.938,1.938,0,0,0,1.935,1.939h1.943A1.939,1.939,0,0,0,12.563,33.1V31.165H25.092a11.769,11.769,0,0,1,8.586-3.726M30.96,25.355h0a2.906,2.906,0,1,1,2.907-2.906,2.9,2.9,0,0,1-2.907,2.906M13.524,6.953H30.958l2.906,8.716H10.624Zm0,18.4a2.906,2.906,0,1,1,2.906-2.907h0a2.908,2.908,0,0,1-2.906,2.906" transform="translate(2.944 1.766)" fill="#fff"/>
    <path id="Caminho_229" data-name="Caminho 229" d="M34.408,23.453,38.7,19.16l1.431,1.432a12.5,12.5,0,0,0,7.084,3.614,1.975,1.975,0,0,0,.259.019,1.8,1.8,0,0,0,1.781-1.808,1.822,1.822,0,0,0-1.52-1.77,8.972,8.972,0,0,1-4.919-2.558l-3.4-3.4a4.408,4.408,0,0,0-2.863-1.074,2.978,2.978,0,0,0-2.5,1.074L29.041,19.7a3.542,3.542,0,0,0-1.072,2.5,3.016,3.016,0,0,0,1.072,2.5l5.725,5.008V36.87a1.788,1.788,0,0,0,3.576,0V29a3.581,3.581,0,0,0-.984-2.468Z" transform="translate(12.204 5.941)" fill="#fff"/>
    <path id="Caminho_230" data-name="Caminho 230" d="M27.946,22.333a8.943,8.943,0,1,0,8.944,8.944,8.953,8.953,0,0,0-8.944-8.944m0,15.205a6.26,6.26,0,1,1,6.261-6.261,6.268,6.268,0,0,1-6.261,6.261" transform="translate(8.292 9.745)" fill="#fff"/>
    <path id="Caminho_231" data-name="Caminho 231" d="M39.391,16.413a3.578,3.578,0,1,0-3.576-3.576,3.581,3.581,0,0,0,3.576,3.576" transform="translate(15.627 4.039)" fill="#fff"/>
    <path id="Caminho_232" data-name="Caminho 232" d="M45.38,22.333a8.943,8.943,0,1,0,8.943,8.944,8.953,8.953,0,0,0-8.943-8.944m0,15.205a6.26,6.26,0,1,1,6.261-6.261,6.268,6.268,0,0,1-6.261,6.261" transform="translate(15.898 9.745)" fill="#fff"/>
  </g>
</svg>
