<svg id="Grupo_187" data-name="Grupo 187" xmlns="http://www.w3.org/2000/svg" width="38.908" height="40.966" viewBox="0 0 38.908 40.966">
  <path id="recycle-variant" d="M9.594,10.725l2.479,1.433L16.63,4.291l3.224,5.574-3.725,2.149,7.824,2.092,2.106-7.823L22.332,8.432,19.108,2.844A2.849,2.849,0,0,0,15.2,1.8a2.758,2.758,0,0,0-.96.9m-.587,25.347V25.183H4.565l3.21-5.588L11.5,21.744,9.408,13.92,1.57,16.012,5.3,18.162,2.072,23.75a2.871,2.871,0,0,0,1.046,3.912,3.011,3.011,0,0,0,1.275.387M26.631,15.869,24.138,17.3l4.557,7.881H22.246v-4.3l-5.732,5.731,5.732,5.731v-4.3h6.448a2.856,2.856,0,0,0,2.866-2.866,2.8,2.8,0,0,0-.315-1.275Z" transform="translate(-1.57 -1.407)" fill="#858280"/>
  <g id="leaf" transform="matrix(0.985, 0.174, -0.174, 0.985, 16.474, 15.47)" fill="#858280">
    <path d="M 4.309948444366455 21.25829124450684 L 3.863508462905884 21.10239028930664 L 1.811318516731262 20.38576126098633 L 1.316778540611267 20.21306037902832 L 1.512288570404053 19.72709083557129 C 1.607888579368591 19.4894905090332 1.703508496284485 19.24994087219238 1.799748539924622 19.00888061523438 C 2.922618627548218 16.19618988037109 4.083708763122559 13.28775119781494 6.19735860824585 10.72783088684082 C 7.266740798950195 9.432666778564453 8.49806022644043 8.340956687927246 9.907831192016602 7.44309139251709 C 6.236330509185791 9.096423149108887 3.702826261520386 11.85047626495361 2.371888637542725 15.63850116729736 L 2.1084885597229 16.38819122314453 L 1.546608567237854 15.8263111114502 C 1.463038563728333 15.742751121521 -0.5000114440917969 13.75267028808594 -0.5000114440917969 11.40098094940186 C -0.5000114440917969 10.30791091918945 -0.008581452071666718 8.511970520019531 1.370688557624817 6.749590873718262 C 2.42236852645874 5.405780792236328 4.339908599853516 3.671120643615723 7.502638339996338 3.038580656051636 C 9.060848236083984 2.726930856704712 10.80443859100342 2.48063063621521 12.49060821533203 2.242430686950684 C 14.65138816833496 1.937200784683228 16.69232940673828 1.64888072013855 18.32546806335449 1.24043071269989 C 20.00268936157227 0.8209407329559326 20.9930591583252 0.3283707499504089 21.26905822753906 -0.2236292511224747 L 22.20865821838379 0.08687075227499008 C 22.17488861083984 0.2782207429409027 21.35505867004395 4.826400756835938 19.0417594909668 9.452960968017578 C 17.67277908325195 12.19091033935547 16.06311798095703 14.37731075286865 14.25750827789307 15.95143032073975 C 11.96854877471924 17.94692993164062 9.363548278808594 18.95873069763184 6.51486873626709 18.95873069763184 C 6.154792785644531 18.95873069763184 5.726545333862305 18.86392021179199 5.345370292663574 18.75150680541992 L 4.490478515625 20.82122039794922 L 4.309948444366455 21.25829124450684 Z" stroke="none"/>
    <path d="M 21.71626853942871 -1.9073486328125e-05 C 20.63045883178711 2.171590805053711 13.02975845336914 2.443050384521484 7.600698471069336 3.528871536254883 C 2.171619415283203 4.614681243896484 -1.1444091796875e-05 9.229360580444336 -1.1444091796875e-05 11.40098094940186 C -1.1444091796875e-05 13.57260131835938 1.900157928466797 15.4727611541748 1.900157928466797 15.4727611541748 C 5.429058074951172 5.429030418395996 16.28719902038574 5.429020881652832 16.28719902038574 5.429020881652832 C 6.514878273010254 7.600650787353516 4.234659194946289 14.30008125305176 1.976158142089844 19.91371154785156 L 4.028348922729492 20.63034057617188 L 5.059867858886719 18.13298034667969 C 5.58106803894043 18.31756973266602 6.123968124389648 18.45873069763184 6.51486873626709 18.45873069763184 C 18.45880889892578 18.45870971679688 21.71626853942871 -1.9073486328125e-05 21.71626853942871 -1.9073486328125e-05 M 20.82183837890625 -0.4472389221191406 L 22.70104789733887 0.1737709045410156 C 22.66676902770996 0.3680400848388672 21.83442878723145 4.985671043395996 19.48896789550781 9.676560401916504 C 18.09066772460938 12.47315120697021 16.44109916687012 14.71112060546875 14.58606910705566 16.32832145690918 C 12.20340824127197 18.4055004119873 9.487858772277832 19.45873069763184 6.51486873626709 19.45873069763184 C 6.261321067810059 19.45873069763184 5.96903133392334 19.42108726501465 5.640630722045898 19.34636497497559 L 4.591558456420898 21.88623046875 L 0.6573886871337891 20.51241111755371 L 1.048429489135742 19.54046058654785 C 1.143848419189453 19.30327987670898 1.23931884765625 19.06414031982422 1.33538818359375 18.82350158691406 C 1.566722869873047 18.24402236938477 1.804616928100586 17.64811515808105 2.056798934936523 17.04361152648926 L 1.193058013916016 16.17987060546875 C 1.103507995605469 16.0903205871582 -1.000011444091797 13.95742034912109 -1.000011444091797 11.40098094940186 C -1.000011444091797 10.22457122802734 -0.4806613922119141 8.303911209106445 0.9769382476806641 6.441440582275391 C 2.080678939819336 5.031101226806641 4.091777801513672 3.210851669311523 7.40457820892334 2.548290252685547 C 8.976788520812988 2.233850479125977 10.72754859924316 1.986530303955078 12.42067813873291 1.747350692749023 C 14.5680980682373 1.444000244140625 16.59643936157227 1.157470703125 18.20414924621582 0.75537109375 C 20.34253883361816 0.2205410003662109 20.74838829040527 -0.3003292083740234 20.82183837890625 -0.4472389221191406 Z" stroke="none" fill="#fff"/>
  </g>
</svg>
