<svg xmlns="http://www.w3.org/2000/svg" width="52.438" height="52.438" viewBox="0 0 52.438 52.438">
  <path id="Path_hands-pray" data-name="Path / hands-pray" d="M26.725,22.11a2.434,2.434,0,0,1,.184.865V36.662a5.229,5.229,0,0,1-1.39,3.54l-7.315,8L9.289,39.284l3.2-3.2,7.341-31.83A2.923,2.923,0,0,1,25.6,4.91v13a5.453,5.453,0,0,0-1.311-.184,5.259,5.259,0,0,0-5.244,5.244v7.866a1.311,1.311,0,0,0,2.622,0V22.975a2.63,2.63,0,0,1,2.622-2.622,2.508,2.508,0,0,1,1.311.42,3.275,3.275,0,0,1,.787.682,1.486,1.486,0,0,1,.21.341,1.6,1.6,0,0,1,.131.315M2,46.573l10.488,7.866,3.068-3.33L6.51,42.063,2,46.573M43.951,36.085,36.609,4.255a2.923,2.923,0,0,0-5.768.655v13a5.453,5.453,0,0,1,1.311-.184A5.259,5.259,0,0,1,37.4,22.975v7.866a1.311,1.311,0,0,1-2.622,0V22.975a2.63,2.63,0,0,0-2.622-2.622,2.508,2.508,0,0,0-1.311.42,2.727,2.727,0,0,0-.76.682,1.577,1.577,0,0,0-.236.341,1.6,1.6,0,0,0-.131.315,2.434,2.434,0,0,0-.184.865V36.662a5.229,5.229,0,0,0,1.39,3.54l7.315,8,8.915-8.915-3.2-3.2m5.978,5.978-9.046,9.046,3.068,3.33,10.488-7.866Z" transform="translate(-2 -2)" fill="#f05423"/>
</svg>
