<svg xmlns="http://www.w3.org/2000/svg" width="31.809" height="33.548" viewBox="0 0 31.809 33.548">
  <path id="Caminho_116" data-name="Caminho 116" d="M13.773,11.02a.4.4,0,0,0-.4.319l-.289,2.014a7.708,7.708,0,0,0-1.3.716L9.9,13.307a.464.464,0,0,0-.473.2L7.9,16.143a.374.374,0,0,0,.091.488L9.61,17.883a6.434,6.434,0,0,0,0,1.523L7.994,20.655a.4.4,0,0,0-.091.49l1.523,2.637c.093.2.292.2.473.2l1.89-.764a6.24,6.24,0,0,0,1.3.719l.289,2.011a.385.385,0,0,0,.4.322h3.049a.389.389,0,0,0,.367-.322l.289-2.011a7.879,7.879,0,0,0,1.28-.719l1.875.764c.2,0,.4,0,.505-.2l1.523-2.637a.4.4,0,0,0-.09-.49l-1.632-1.249a6.476,6.476,0,0,0,.06-.762,4.323,4.323,0,0,0-.06-.762l1.616-1.252a.4.4,0,0,0,.09-.488l-1.523-2.637c-.093-.2-.292-.2-.49-.2l-1.875.762a6.678,6.678,0,0,0-1.295-.716l-.289-2.014a.362.362,0,0,0-.352-.319ZM15.3,16.357a2.288,2.288,0,1,1-2.288,2.288A2.283,2.283,0,0,1,15.3,16.357M3.1-1.178H6.149V1.872H3.1Zm9.148,3.049H9.2V-1.178h3.049ZM9.2,4.921h3.049V7.97H9.2Zm-6.1,0H6.149V7.97H3.1ZM7.841,26.269H-9.1V-7.279H18.349V8.413A11.1,11.1,0,0,0,15.3,7.97V-4.23H-6.049V23.217H3.1V17.883H4.671a4.305,4.305,0,0,0-.045.762,10.634,10.634,0,0,0,3.215,7.625M.05,14.069H-3V11.02H.05Zm0-6.1H-3V4.921H.05Zm0-6.1H-3V-1.178H.05ZM-3,17.118H.05v3.049H-3Zm6.1-6.1H6.149v2.149c-.168.289-.334.6-.488.9H3.1Z" transform="translate(9.098 7.279)" fill="#f05423"/>
</svg>
