<svg xmlns="http://www.w3.org/2000/svg" width="79.81" height="79.809" viewBox="0 0 79.81 79.809">
  <g id="Grupo_89" data-name="Grupo 89" transform="translate(-1286.493 -1746.23)">
    <path id="Caminho_42" data-name="Caminho 42" d="M15.442-35.454H35.9v2.447H15.442Z" transform="translate(1298.155 1792.064)" fill="#f47920" stroke="#fff" stroke-width="0.177"/>
    <g id="Grupo_47" data-name="Grupo 47" transform="translate(1286.582 1746.319)">
      <path id="Caminho_43" data-name="Caminho 43" d="M39.018,0H-25.2V20.55h-5.137A3.858,3.858,0,0,0-34.192,24.4a3.816,3.816,0,0,0,.235,1.284h-.235a6.431,6.431,0,0,0-6.423,6.423,6.43,6.43,0,0,0,6.423,6.421h8.99V49.2a3.848,3.848,0,0,0-1.847,1.939l-2.9,6.757-5.043.631a6.429,6.429,0,0,0-5.625,6.37v5.741a3.857,3.857,0,0,0,3.853,3.853h1.733a7.71,7.71,0,0,0,7.256,5.137,7.715,7.715,0,0,0,7.258-5.137H-9.338a7.71,7.71,0,0,0,7.256,5.137,7.71,7.71,0,0,0,7.256-5.137H6.908a3.847,3.847,0,0,0,3.617-2.568H39.018ZM-31.623,24.4a1.287,1.287,0,0,1,1.284-1.284h10.276A1.287,1.287,0,0,1-18.779,24.4a1.286,1.286,0,0,1-1.284,1.284H-30.339A1.286,1.286,0,0,1-31.623,24.4m11.56,3.855H-4.65v7.705H-25.2V28.257Zm17.981.569,7.337,2.751a.57.57,0,0,1,0,1.067l-7.335,2.751Zm-15.413,9.705H-3.133l9.29-3.482a3.14,3.14,0,0,0,0-5.878l-9.29-3.484H-16.448A3.77,3.77,0,0,0-16.21,24.4a3.832,3.832,0,0,0-1.284-2.851V7.705H10.761V41.1H-17.495Zm-20.55-6.421a3.856,3.856,0,0,1,3.853-3.853h6.421v7.705h-6.421a3.857,3.857,0,0,1-3.853-3.853m3.374,28.969,6.506-.814,3.476-8.109a1.284,1.284,0,0,1,1.18-.78h22.3a1.285,1.285,0,0,1,1.18.776L3.41,60.173l3.81.951a1.289,1.289,0,0,1,.974,1.249v4.415H3.645A7.7,7.7,0,0,0,.3,64.6L-2.364,53.944H-22.141l-5.149,10.3c-.159-.012-.318-.025-.48-.025A7.682,7.682,0,0,0-33.5,66.789h-4.547V64.9A3.86,3.86,0,0,1-34.67,61.079Zm26.859,5.71h-4.547V56.515H-4.37l1.931,7.723A7.679,7.679,0,0,0-7.811,66.789Zm-16.911-1.937,4.166-8.337h5.629V66.789h-7.115a7.755,7.755,0,0,0-2.68-1.937M-36.76,71.926a1.284,1.284,0,0,1-1.284-1.284V69.357h3.017a7.7,7.7,0,0,0-.449,2.568Zm8.99,5.139a5.144,5.144,0,0,1-5.137-5.139,5.142,5.142,0,0,1,5.137-5.137,5.144,5.144,0,0,1,5.139,5.137,5.145,5.145,0,0,1-5.139,5.139m7.707-5.139a7.656,7.656,0,0,0-.451-2.568H-9.338a7.656,7.656,0,0,0-.451,2.568Zm17.981,5.139a5.145,5.145,0,0,1-5.139-5.139,5.144,5.144,0,0,1,5.139-5.137,5.142,5.142,0,0,1,5.137,5.137,5.144,5.144,0,0,1-5.137,5.139m8.99-5.139H5.624a7.7,7.7,0,0,0-.449-2.568H8.192v1.284a1.284,1.284,0,0,1-1.284,1.284M36.45,69.357H10.761V62.373a3.847,3.847,0,0,0-2.917-3.737l-2.574-.643L2.336,51.142a3.854,3.854,0,0,0-3.541-2.335H-22.634V38.533h2.57V43.67H13.329V5.139H-20.063V20.552h-2.57V2.57H36.45Z" transform="translate(40.615)" fill="#f47920"/>
    </g>
    <g id="Grupo_48" data-name="Grupo 48" transform="translate(1286.582 1746.319)">
      <path id="Caminho_44" data-name="Caminho 44" d="M39.018,0H-25.2V20.55h-5.137A3.858,3.858,0,0,0-34.192,24.4a3.816,3.816,0,0,0,.235,1.284h-.235a6.431,6.431,0,0,0-6.423,6.423,6.43,6.43,0,0,0,6.423,6.421h8.99V49.2a3.848,3.848,0,0,0-1.847,1.939l-2.9,6.757-5.043.631a6.429,6.429,0,0,0-5.625,6.37v5.741a3.857,3.857,0,0,0,3.853,3.853h1.733a7.71,7.71,0,0,0,7.256,5.137,7.715,7.715,0,0,0,7.258-5.137H-9.338a7.71,7.71,0,0,0,7.256,5.137,7.71,7.71,0,0,0,7.256-5.137H6.908a3.847,3.847,0,0,0,3.617-2.568H39.018ZM-31.623,24.4a1.287,1.287,0,0,1,1.284-1.284h10.276A1.287,1.287,0,0,1-18.779,24.4a1.286,1.286,0,0,1-1.284,1.284H-30.339A1.286,1.286,0,0,1-31.623,24.4Zm11.56,3.855H-4.65v7.705H-25.2V28.257Zm17.981.569,7.337,2.751a.57.57,0,0,1,0,1.067l-7.335,2.751Zm-15.413,9.705H-3.133l9.29-3.482a3.14,3.14,0,0,0,0-5.878l-9.29-3.484H-16.448A3.77,3.77,0,0,0-16.21,24.4a3.832,3.832,0,0,0-1.284-2.851V7.705H10.761V41.1H-17.495Zm-20.55-6.421a3.856,3.856,0,0,1,3.853-3.853h6.421v7.705h-6.421A3.857,3.857,0,0,1-38.045,32.11Zm3.374,28.969,6.506-.814,3.476-8.109a1.284,1.284,0,0,1,1.18-.78h22.3a1.285,1.285,0,0,1,1.18.776L3.41,60.173l3.81.951a1.289,1.289,0,0,1,.974,1.249v4.415H3.645A7.7,7.7,0,0,0,.3,64.6L-2.364,53.944H-22.141l-5.149,10.3c-.159-.012-.318-.025-.48-.025A7.682,7.682,0,0,0-33.5,66.789h-4.547V64.9a3.86,3.86,0,0,1,3.374-3.823Zm26.859,5.71h-4.547V56.515H-4.37l1.931,7.723a7.679,7.679,0,0,0-5.372,2.551Zm-16.911-1.937,4.166-8.337h5.629V66.789h-7.115A7.755,7.755,0,0,0-24.722,64.852ZM-36.76,71.926a1.284,1.284,0,0,1-1.284-1.284V69.357h3.017a7.7,7.7,0,0,0-.449,2.568Zm8.99,5.139a5.144,5.144,0,0,1-5.137-5.139,5.142,5.142,0,0,1,5.137-5.137,5.144,5.144,0,0,1,5.139,5.137A5.145,5.145,0,0,1-27.771,77.065Zm7.707-5.139a7.656,7.656,0,0,0-.451-2.568H-9.338a7.656,7.656,0,0,0-.451,2.568Zm17.981,5.139a5.145,5.145,0,0,1-5.139-5.139,5.144,5.144,0,0,1,5.139-5.137,5.142,5.142,0,0,1,5.137,5.137A5.144,5.144,0,0,1-2.082,77.065Zm8.99-5.139H5.624a7.7,7.7,0,0,0-.449-2.568H8.192v1.284A1.284,1.284,0,0,1,6.908,71.926ZM36.45,69.357H10.761V62.373a3.847,3.847,0,0,0-2.917-3.737l-2.574-.643L2.336,51.142a3.854,3.854,0,0,0-3.541-2.335H-22.634V38.533h2.57V43.67H13.329V5.139H-20.063V20.552h-2.57V2.57H36.45Z" transform="translate(40.615)" fill="#f47920" stroke="#fff" stroke-width="0.177"/>
    </g>
    <g id="Grupo_49" data-name="Grupo 49" transform="translate(1343.184 1756.611)">
      <path id="Caminho_45" data-name="Caminho 45" d="M5.633,11.295H.524A3.842,3.842,0,0,1-3.309,7.452H-5.864a6.4,6.4,0,0,0,6.388,6.4H1.8v2.563H4.355V13.855H5.633a6.4,6.4,0,0,0,0-12.805H.524A3.843,3.843,0,0,1-3.309-2.793,3.843,3.843,0,0,1,.524-6.636h5.11A3.843,3.843,0,0,1,9.467-2.793h2.555A6.4,6.4,0,0,0,5.633-9.2H4.355v-2.561H1.8V-9.2H.524a6.4,6.4,0,0,0-6.388,6.4,6.4,6.4,0,0,0,6.388,6.4h5.11a3.842,3.842,0,0,1,0,7.684" transform="translate(5.864 11.757)" fill="#f47920"/>
    </g>
    <g id="Grupo_50" data-name="Grupo 50" transform="translate(1343.184 1756.611)">
      <path id="Caminho_46" data-name="Caminho 46" d="M5.633,11.295H.524A3.842,3.842,0,0,1-3.309,7.452H-5.864a6.4,6.4,0,0,0,6.388,6.4H1.8v2.563H4.355V13.855H5.633a6.4,6.4,0,0,0,0-12.805H.524A3.843,3.843,0,0,1-3.309-2.793,3.843,3.843,0,0,1,.524-6.636h5.11A3.843,3.843,0,0,1,9.467-2.793h2.555A6.4,6.4,0,0,0,5.633-9.2H4.355v-2.561H1.8V-9.2H.524a6.4,6.4,0,0,0-6.388,6.4,6.4,6.4,0,0,0,6.388,6.4h5.11a3.842,3.842,0,0,1,0,7.684Z" transform="translate(5.864 11.757)" fill="#f47920" stroke="#fff" stroke-width="0.177"/>
    </g>
    <path id="Caminho_48" data-name="Caminho 48" d="M15.442-32.83H35.9v2.447H15.442Z" transform="translate(1298.155 1794.585)" fill="#f47920" stroke="#fff" stroke-width="0.177"/>
    <path id="Caminho_49" data-name="Caminho 49" d="M15.442-30.205H35.9v2.447H15.442Z" transform="translate(1298.155 1797.107)" fill="#f47920" stroke="#fff" stroke-width="0.177"/>
    <path id="Caminho_50" data-name="Caminho 50" d="M29.22-7.9H44.531V-5.45H29.22Z" transform="translate(1311.392 1818.538)" fill="#f47920" stroke="#fff" stroke-width="0.177"/>
    <path id="Caminho_51" data-name="Caminho 51" d="M38.406-7.9h2.447V-5.45H38.406Z" transform="translate(1320.216 1818.538)" fill="#f47920" stroke="#fff" stroke-width="0.177"/>
    <path id="Caminho_52" data-name="Caminho 52" d="M29.22-10.522H49.676v2.447H29.22Z" transform="translate(1311.392 1816.016)" fill="#f47920" stroke="#fff" stroke-width="0.177"/>
    <path id="Caminho_53" data-name="Caminho 53" d="M29.22-13.146h2.447V-10.7H29.22Z" transform="translate(1311.392 1813.495)" fill="#f47920" stroke="#fff" stroke-width="0.177"/>
    <path id="Caminho_54" data-name="Caminho 54" d="M31.845-13.146H47.156V-10.7H31.845Z" transform="translate(1313.913 1813.495)" fill="#f47920" stroke="#fff" stroke-width="0.177"/>
    <path id="Caminho_55" data-name="Caminho 55" d="M29.22-15.771H49.676v2.447H29.22Z" transform="translate(1311.392 1810.974)" fill="#f47920" stroke="#fff" stroke-width="0.177"/>
  </g>
</svg>
