<svg xmlns="http://www.w3.org/2000/svg" width="60.328" height="66.784" viewBox="0 0 60.328 66.784">
  <g id="Grupo_88" data-name="Grupo 88" transform="translate(-1284.919 -1684.422)">
    <path id="Caminho_58" data-name="Caminho 58" d="M15.045,1.574a21.058,21.058,0,0,1,.225,3.07,20.3,20.3,0,0,1-3.009,10.723,20.294,20.294,0,0,1-8.209,7.526,1.076,1.076,0,0,0-.591.956v3.393H.24V13.672l1.835-1.846A3.221,3.221,0,1,0,.24,8.938a3.119,3.119,0,0,0,.323,1.374l-2.147,2.147a1.075,1.075,0,0,0-.312.763V27.177H-4.053V5.555A4.291,4.291,0,0,0-1.1,2.892a4.292,4.292,0,0,0-.5-3.946A4.292,4.292,0,0,0-5.127-2.895,4.292,4.292,0,0,0-8.651-1.053a4.3,4.3,0,0,0-.5,3.946A4.293,4.293,0,0,0-6.2,5.555V27.186H-9.42V13.231a1.072,1.072,0,0,0-.312-.761l-2.147-2.147a3.124,3.124,0,0,0,.323-1.374A3.276,3.276,0,0,0-12.664,6.44a3.272,3.272,0,0,0-2.626-.787,3.269,3.269,0,0,0-2.3,1.485,3.268,3.268,0,0,0-.367,2.717A3.275,3.275,0,0,0-16.134,11.9a3.273,3.273,0,0,0,2.742-.063l1.825,1.835V27.186h-2.147V23.794a1.073,1.073,0,0,0-.59-.956,20.318,20.318,0,0,1-8.2-7.5A20.321,20.321,0,0,1-25.523,4.643V3.677l-2.147-.1V4.654h0A22.421,22.421,0,0,0-24.5,16.179a22.411,22.411,0,0,0,8.64,8.259V28.26a1.074,1.074,0,0,0,.315.758,1.071,1.071,0,0,0,.76.315h1.073v3.22a1.075,1.075,0,0,0,.315.76,1.075,1.075,0,0,0,.76.315h1.073V39a3.222,3.222,0,0,0,.943,2.277,3.222,3.222,0,0,0,2.277.943h6.442a3.222,3.222,0,0,0,2.277-.943A3.222,3.222,0,0,0,1.315,39V33.628H2.388a1.073,1.073,0,0,0,1.073-1.074v-3.22H4.535A1.073,1.073,0,0,0,5.608,28.26V24.438a22.4,22.4,0,0,0,8.643-8.264A22.412,22.412,0,0,0,17.417,4.643a23.592,23.592,0,0,0-.247-3.381ZM3.462,7.865A1.073,1.073,0,1,1,2.388,8.938,1.073,1.073,0,0,1,3.462,7.865M-7.273,1.423A2.147,2.147,0,0,1-6.645-.095,2.147,2.147,0,0,1-5.127-.723a2.147,2.147,0,0,1,1.519.628A2.147,2.147,0,0,1-2.98,1.423a2.145,2.145,0,0,1-.628,1.519,2.147,2.147,0,0,1-1.519.628,2.147,2.147,0,0,1-1.517-.628,2.145,2.145,0,0,1-.628-1.519m-8.589,7.515a1.074,1.074,0,0,1,.664-.991,1.073,1.073,0,0,1,1.17.233A1.072,1.072,0,0,1-13.8,9.35a1.074,1.074,0,0,1-.991.662,1.074,1.074,0,0,1-1.074-1.074M-1.905,40.07H-8.347A1.073,1.073,0,0,1-9.42,39V37.922H-.832V39a1.069,1.069,0,0,1-.315.76,1.074,1.074,0,0,1-.758.315m1.073-4.295H-9.42V33.628H-.832Zm2.147-4.293H-11.567V29.335H1.315Z" transform="translate(1323.437 1708.902)" fill="#f47920"/>
    <path id="Caminho_59" data-name="Caminho 59" d="M15.045,1.574a21.058,21.058,0,0,1,.225,3.07,20.3,20.3,0,0,1-3.009,10.723,20.294,20.294,0,0,1-8.209,7.526,1.076,1.076,0,0,0-.591.956v3.393H.24V13.672l1.835-1.846A3.221,3.221,0,1,0,.24,8.938a3.119,3.119,0,0,0,.323,1.374l-2.147,2.147a1.075,1.075,0,0,0-.312.763V27.177H-4.053V5.555A4.291,4.291,0,0,0-1.1,2.892a4.292,4.292,0,0,0-.5-3.946A4.292,4.292,0,0,0-5.127-2.895,4.292,4.292,0,0,0-8.651-1.053a4.3,4.3,0,0,0-.5,3.946A4.293,4.293,0,0,0-6.2,5.555V27.186H-9.42V13.231a1.072,1.072,0,0,0-.312-.761l-2.147-2.147a3.124,3.124,0,0,0,.323-1.374A3.276,3.276,0,0,0-12.664,6.44a3.272,3.272,0,0,0-2.626-.787,3.269,3.269,0,0,0-2.3,1.485,3.268,3.268,0,0,0-.367,2.717A3.275,3.275,0,0,0-16.134,11.9a3.273,3.273,0,0,0,2.742-.063l1.825,1.835V27.186h-2.147V23.794a1.073,1.073,0,0,0-.59-.956,20.318,20.318,0,0,1-8.2-7.5A20.321,20.321,0,0,1-25.523,4.643V3.677l-2.147-.1V4.654h0A22.421,22.421,0,0,0-24.5,16.179a22.411,22.411,0,0,0,8.64,8.259V28.26a1.074,1.074,0,0,0,.315.758,1.071,1.071,0,0,0,.76.315h1.073v3.22a1.075,1.075,0,0,0,.315.76,1.075,1.075,0,0,0,.76.315h1.073V39a3.222,3.222,0,0,0,.943,2.277,3.222,3.222,0,0,0,2.277.943h6.442a3.222,3.222,0,0,0,2.277-.943A3.222,3.222,0,0,0,1.315,39V33.628H2.388a1.073,1.073,0,0,0,1.073-1.074v-3.22H4.535A1.073,1.073,0,0,0,5.608,28.26V24.438a22.4,22.4,0,0,0,8.643-8.264A22.412,22.412,0,0,0,17.417,4.643a23.592,23.592,0,0,0-.247-3.381ZM3.462,7.865A1.073,1.073,0,1,1,2.388,8.938,1.073,1.073,0,0,1,3.462,7.865ZM-7.273,1.423A2.147,2.147,0,0,1-6.645-.095,2.147,2.147,0,0,1-5.127-.723a2.147,2.147,0,0,1,1.519.628A2.147,2.147,0,0,1-2.98,1.423a2.145,2.145,0,0,1-.628,1.519,2.147,2.147,0,0,1-1.519.628,2.147,2.147,0,0,1-1.517-.628A2.145,2.145,0,0,1-7.273,1.423Zm-8.589,7.515a1.074,1.074,0,0,1,.664-.991,1.073,1.073,0,0,1,1.17.233A1.072,1.072,0,0,1-13.8,9.35a1.074,1.074,0,0,1-.991.662A1.074,1.074,0,0,1-15.862,8.938ZM-1.905,40.07H-8.347A1.073,1.073,0,0,1-9.42,39V37.922H-.832V39a1.069,1.069,0,0,1-.315.76A1.074,1.074,0,0,1-1.905,40.07Zm1.073-4.295H-9.42V33.628H-.832Zm2.147-4.293H-11.567V29.335H1.315Z" transform="translate(1323.437 1708.902)" fill="#f47920" stroke="#fff" stroke-width="0.177"/>
    <g id="Grupo_56" data-name="Grupo 56" transform="translate(1325.897 1689.891)">
      <path id="Caminho_60" data-name="Caminho 60" d="M6.407,2.261H5.776L6.1,1.94A1.069,1.069,0,0,0,6.1.432L2.886-2.779a1.07,1.07,0,0,0-.76-.316,1.07,1.07,0,0,0-.76.316l-.31.31v-.621a1.069,1.069,0,0,0-.313-.756,1.069,1.069,0,0,0-.756-.313H-4.294a1.069,1.069,0,0,0-1.07,1.07v.621l-.31-.31h0a1.073,1.073,0,0,0-.76-.316,1.067,1.067,0,0,0-.76.316L-10.4.432a1.069,1.069,0,0,0,0,1.508l.321.321h-.631a1.069,1.069,0,0,0-1.07,1.07V7.612a1.069,1.069,0,0,0,.313.756,1.069,1.069,0,0,0,.756.313h.631l-.321.31a1.071,1.071,0,0,0,0,1.51l3.211,3.209a1.067,1.067,0,0,0,.76.316,1.073,1.073,0,0,0,.76-.316l.31-.31v.631a1.069,1.069,0,0,0,.313.756,1.069,1.069,0,0,0,.756.313H-.013a1.069,1.069,0,0,0,.756-.313,1.069,1.069,0,0,0,.313-.756V13.4l.31.31a1.07,1.07,0,0,0,1.519,0L6.1,10.5a1.071,1.071,0,0,0,0-1.51l-.321-.31h.631a1.07,1.07,0,0,0,1.07-1.07V3.331a1.07,1.07,0,0,0-1.07-1.07M5.337,6.542h-.31a1.072,1.072,0,0,0-1.071.76,7.457,7.457,0,0,1-.448,1.07A1.068,1.068,0,0,0,3.7,9.623l.086.086L2.126,11.443l-.085-.085v0A1.071,1.071,0,0,0,.79,11.165a5.287,5.287,0,0,1-1.07.449,1.067,1.067,0,0,0-.76,1.07v.321H-3.224v-.321a1.069,1.069,0,0,0-.76-1.07,5.25,5.25,0,0,1-1.07-.449,1.071,1.071,0,0,0-1.252.191l-.086.086-1.7-1.692.086-.085a1.071,1.071,0,0,0,.191-1.252,7.646,7.646,0,0,1-.449-1.07,1.069,1.069,0,0,0-1.07-.76h-.31V4.444h.31a1.069,1.069,0,0,0,1.07-.77A7.645,7.645,0,0,1-7.815,2.6,1.07,1.07,0,0,0-8.05,1.287l-.085-.074,1.7-1.723.085.085A1.069,1.069,0,0,0-5.1-.232a5.287,5.287,0,0,1,1.07-.449,1.069,1.069,0,0,0,.76-1.071v-.267h2.141v.31A1.07,1.07,0,0,0-.367-.638,5.165,5.165,0,0,1,.7-.189,1.071,1.071,0,0,0,1.955-.382L2.126-.51l1.7,1.7-.085.076v0A1.072,1.072,0,0,0,3.55,2.518,7.483,7.483,0,0,1,4,3.589a1.071,1.071,0,0,0,1.07.77h.269Z" transform="translate(11.784 4.159)" fill="#f47920"/>
    </g>
    <g id="Grupo_57" data-name="Grupo 57" transform="translate(1325.897 1689.891)">
      <path id="Caminho_61" data-name="Caminho 61" d="M6.407,2.261H5.776L6.1,1.94A1.069,1.069,0,0,0,6.1.432L2.886-2.779a1.07,1.07,0,0,0-.76-.316,1.07,1.07,0,0,0-.76.316l-.31.31v-.621a1.069,1.069,0,0,0-.313-.756,1.069,1.069,0,0,0-.756-.313H-4.294a1.069,1.069,0,0,0-1.07,1.07v.621l-.31-.31h0a1.073,1.073,0,0,0-.76-.316,1.067,1.067,0,0,0-.76.316L-10.4.432a1.069,1.069,0,0,0,0,1.508l.321.321h-.631a1.069,1.069,0,0,0-1.07,1.07V7.612a1.069,1.069,0,0,0,.313.756,1.069,1.069,0,0,0,.756.313h.631l-.321.31a1.071,1.071,0,0,0,0,1.51l3.211,3.209a1.067,1.067,0,0,0,.76.316,1.073,1.073,0,0,0,.76-.316l.31-.31v.631a1.069,1.069,0,0,0,.313.756,1.069,1.069,0,0,0,.756.313H-.013a1.069,1.069,0,0,0,.756-.313,1.069,1.069,0,0,0,.313-.756V13.4l.31.31a1.07,1.07,0,0,0,1.519,0L6.1,10.5a1.071,1.071,0,0,0,0-1.51l-.321-.31h.631a1.07,1.07,0,0,0,1.07-1.07V3.331a1.07,1.07,0,0,0-1.07-1.07ZM5.337,6.542h-.31a1.072,1.072,0,0,0-1.071.76,7.457,7.457,0,0,1-.448,1.07A1.068,1.068,0,0,0,3.7,9.623l.086.086L2.126,11.443l-.085-.085v0A1.071,1.071,0,0,0,.79,11.165a5.287,5.287,0,0,1-1.07.449,1.067,1.067,0,0,0-.76,1.07v.321H-3.224v-.321a1.069,1.069,0,0,0-.76-1.07,5.25,5.25,0,0,1-1.07-.449,1.071,1.071,0,0,0-1.252.191l-.086.086-1.7-1.692.086-.085a1.071,1.071,0,0,0,.191-1.252,7.646,7.646,0,0,1-.449-1.07,1.069,1.069,0,0,0-1.07-.76h-.31V4.444h.31a1.069,1.069,0,0,0,1.07-.77A7.645,7.645,0,0,1-7.815,2.6,1.07,1.07,0,0,0-8.05,1.287l-.085-.074,1.7-1.723.085.085A1.069,1.069,0,0,0-5.1-.232a5.287,5.287,0,0,1,1.07-.449,1.069,1.069,0,0,0,.76-1.071v-.267h2.141v.31A1.07,1.07,0,0,0-.367-.638,5.165,5.165,0,0,1,.7-.189,1.071,1.071,0,0,0,1.955-.382L2.126-.51l1.7,1.7-.085.076v0A1.072,1.072,0,0,0,3.55,2.518,7.483,7.483,0,0,1,4,3.589a1.071,1.071,0,0,0,1.07.77h.269Z" transform="translate(11.784 4.159)" fill="#f47920" stroke="#fff" stroke-width="0.177"/>
    </g>
    <g id="Grupo_58" data-name="Grupo 58" transform="translate(1331.276 1695.271)">
      <path id="Caminho_62" data-name="Caminho 62" d="M1.5,0A4.253,4.253,0,1,0,4.5,1.246,4.247,4.247,0,0,0,1.5,0m0,6.376A2.124,2.124,0,1,1,3,5.753a2.131,2.131,0,0,1-1.5.622" transform="translate(2.754)" fill="#f47920"/>
    </g>
    <g id="Grupo_59" data-name="Grupo 59" transform="translate(1331.276 1695.271)">
      <path id="Caminho_63" data-name="Caminho 63" d="M1.5,0A4.253,4.253,0,1,0,4.5,1.246,4.247,4.247,0,0,0,1.5,0Zm0,6.376A2.124,2.124,0,1,1,3,5.753,2.131,2.131,0,0,1,1.5,6.376Z" transform="translate(2.754)" fill="#f47920" stroke="#fff" stroke-width="0.177"/>
    </g>
    <g id="Grupo_60" data-name="Grupo 60" transform="translate(1285.007 1684.51)">
      <path id="Caminho_64" data-name="Caminho 64" d="M9.058,4.529A12.86,12.86,0,0,0,5.292-4.563,12.86,12.86,0,0,0-3.8-8.33a12.86,12.86,0,0,0-9.092,3.767A12.86,12.86,0,0,0-16.66,4.529a12.86,12.86,0,0,0,3.767,9.092A12.86,12.86,0,0,0-3.8,17.388a12.86,12.86,0,0,0,9.092-3.767A12.86,12.86,0,0,0,9.058,4.529M-2.73,10.959a10.332,10.332,0,0,1,1.618.161A13.8,13.8,0,0,1-2.73,13.606Zm0-2.143V5.6H.486A14.017,14.017,0,0,1-.221,9.126a11.632,11.632,0,0,0-2.509-.3Zm0-5.358V.242a11.64,11.64,0,0,0,2.455-.3A13.977,13.977,0,0,1,.432,3.479Zm0-5.358V-4.557A13.787,13.787,0,0,1-1.112-2.083a9.974,9.974,0,0,1-1.618.161Zm-2.143,0A10.15,10.15,0,0,1-6.49-2.061a13.735,13.735,0,0,1,1.618-2.5Zm0,2.143V3.458H-8.034A13.977,13.977,0,0,1-7.327-.079a11.744,11.744,0,0,0,2.455.3Zm0,5.358V8.816a11.64,11.64,0,0,0-2.455.3A14.017,14.017,0,0,1-8.034,5.59Zm0,5.358V13.6A13.8,13.8,0,0,1-6.49,11.119a10.138,10.138,0,0,1,1.618-.15Zm5.818.8a9.548,9.548,0,0,1,1.93,1.071A10.624,10.624,0,0,1-.982,14.795,16.493,16.493,0,0,0,.946,11.774Zm.815-1.984h0A16.322,16.322,0,0,0,2.629,5.6H6.916a10.576,10.576,0,0,1-2.433,5.777A12.009,12.009,0,0,0,1.761,9.79Zm.868-6.322a16.259,16.259,0,0,0-.868-4.19A11.978,11.978,0,0,0,4.429-2.319,10.617,10.617,0,0,1,6.916,3.458ZM.946-2.725A16.415,16.415,0,0,0-.982-5.8,10.628,10.628,0,0,1,2.876-3.839,9.68,9.68,0,0,1,.946-2.725Zm-9.494,0A9.646,9.646,0,0,1-10.476-3.8,10.579,10.579,0,0,1-6.618-5.758a16.3,16.3,0,0,0-1.93,3.033M-9.363-.732a16.311,16.311,0,0,0-.814,4.2h-4.287A10.614,10.614,0,0,1-12.03-2.319,11.978,11.978,0,0,0-9.363-.732m-.814,6.343A16.349,16.349,0,0,0-9.363,9.8a12.064,12.064,0,0,0-2.668,1.576A10.576,10.576,0,0,1-14.463,5.6Zm1.629,6.172a16.423,16.423,0,0,0,1.93,3.077A10.6,10.6,0,0,1-10.476,12.9a9.592,9.592,0,0,1,1.928-1.124Z" transform="translate(16.66 8.33)" fill="#f47920"/>
    </g>
    <g id="Grupo_61" data-name="Grupo 61" transform="translate(1285.007 1684.51)">
      <path id="Caminho_65" data-name="Caminho 65" d="M9.058,4.529A12.86,12.86,0,0,0,5.292-4.563,12.86,12.86,0,0,0-3.8-8.33a12.86,12.86,0,0,0-9.092,3.767A12.86,12.86,0,0,0-16.66,4.529a12.86,12.86,0,0,0,3.767,9.092A12.86,12.86,0,0,0-3.8,17.388a12.86,12.86,0,0,0,9.092-3.767A12.86,12.86,0,0,0,9.058,4.529ZM-2.73,10.959a10.332,10.332,0,0,1,1.618.161A13.8,13.8,0,0,1-2.73,13.606Zm0-2.143V5.6H.486A14.017,14.017,0,0,1-.221,9.126a11.632,11.632,0,0,0-2.509-.3Zm0-5.358V.242a11.64,11.64,0,0,0,2.455-.3A13.977,13.977,0,0,1,.432,3.479Zm0-5.358V-4.557A13.787,13.787,0,0,1-1.112-2.083a9.974,9.974,0,0,1-1.618.161Zm-2.143,0A10.15,10.15,0,0,1-6.49-2.061a13.735,13.735,0,0,1,1.618-2.5Zm0,2.143V3.458H-8.034A13.977,13.977,0,0,1-7.327-.079a11.744,11.744,0,0,0,2.455.3Zm0,5.358V8.816a11.64,11.64,0,0,0-2.455.3A14.017,14.017,0,0,1-8.034,5.59Zm0,5.358V13.6A13.8,13.8,0,0,1-6.49,11.119a10.138,10.138,0,0,1,1.618-.15Zm5.818.8a9.548,9.548,0,0,1,1.93,1.071A10.624,10.624,0,0,1-.982,14.795,16.493,16.493,0,0,0,.946,11.774Zm.815-1.984h0A16.322,16.322,0,0,0,2.629,5.6H6.916a10.576,10.576,0,0,1-2.433,5.777A12.009,12.009,0,0,0,1.761,9.79Zm.868-6.322a16.259,16.259,0,0,0-.868-4.19A11.978,11.978,0,0,0,4.429-2.319,10.617,10.617,0,0,1,6.916,3.458ZM.946-2.725A16.415,16.415,0,0,0-.982-5.8,10.628,10.628,0,0,1,2.876-3.839,9.68,9.68,0,0,1,.946-2.725Zm-9.494,0A9.646,9.646,0,0,1-10.476-3.8,10.579,10.579,0,0,1-6.618-5.758,16.3,16.3,0,0,0-8.548-2.725ZM-9.363-.732a16.311,16.311,0,0,0-.814,4.2h-4.287A10.614,10.614,0,0,1-12.03-2.319,11.978,11.978,0,0,0-9.363-.732Zm-.814,6.343A16.349,16.349,0,0,0-9.363,9.8a12.064,12.064,0,0,0-2.668,1.576A10.576,10.576,0,0,1-14.463,5.6Zm1.629,6.172a16.423,16.423,0,0,0,1.93,3.077A10.6,10.6,0,0,1-10.476,12.9a9.592,9.592,0,0,1,1.928-1.124Z" transform="translate(16.66 8.33)" fill="#f47920" stroke="#fff" stroke-width="0.177"/>
    </g>
  </g>
</svg>
