<svg xmlns="http://www.w3.org/2000/svg" width="30.932" height="30.932" viewBox="0 0 30.932 30.932">
  <path id="car-info" d="M30.5,22.9H27.058V19.466H30.5M32.214,31.5v3.437H25.34V31.5h1.718V28.058H25.34V24.621H30.5V31.5M30.358,5.718A2.578,2.578,0,0,0,27.918,4H9.015a2.578,2.578,0,0,0-2.44,1.718L3,16.029V29.777A1.718,1.718,0,0,0,4.718,31.5H6.437a1.718,1.718,0,0,0,1.718-1.718V28.058h8.592A12.029,12.029,0,0,1,28.777,16.029,11.754,11.754,0,0,1,33.932,17.2V16.029M9.015,22.9a2.578,2.578,0,1,1,2.578-2.578A2.578,2.578,0,0,1,9.015,22.9M6.437,14.311,9.015,6.578h18.9L30.5,14.311Z" transform="translate(-3 -4)" fill="#858280"/>
</svg>
