<svg id="Grupo_275" data-name="Grupo 275" xmlns="http://www.w3.org/2000/svg" xmlns:xlink="http://www.w3.org/1999/xlink" width="59.397" height="41.776" viewBox="0 0 59.397 41.776">
  <defs>
    <clipPath id="clip-path">
      <rect id="Retângulo_117" data-name="Retângulo 117" width="59.397" height="41.776" fill="#fff"/>
    </clipPath>
  </defs>
  <g id="Grupo_274" data-name="Grupo 274" clip-path="url(#clip-path)">
    <path id="Caminho_233" data-name="Caminho 233" d="M31.858,33.444a16.733,16.733,0,0,1-5.56,3.236,32.637,32.637,0,0,0,2.883-7.436,5.866,5.866,0,0,1,.844-4.472,34.471,34.471,0,0,0,.263-3.883,34.489,34.489,0,0,0-.292-4.178H33.9l3.16-5.477a7.5,7.5,0,0,1,1.287-1.78,20.875,20.875,0,1,0-4.2,27.576Zm3.484-20.911H29.18A32.637,32.637,0,0,0,26.3,5.1a16.687,16.687,0,0,1,9.044,7.436M20.888,4.24a28.451,28.451,0,0,1,3.99,8.292H16.9a28.451,28.451,0,0,1,3.99-8.292M4.721,25.065a16.324,16.324,0,0,1,0-8.355h7.06a34.489,34.489,0,0,0-.292,4.178,34.489,34.489,0,0,0,.292,4.178Zm1.713,4.178h6.1a36.019,36.019,0,0,0,2.924,7.436,16.725,16.725,0,0,1-9.024-7.436m6.1-16.71h-6.1A16.546,16.546,0,0,1,15.457,5.1a36.019,36.019,0,0,0-2.924,7.436m8.355,24.982a28.31,28.31,0,0,1-3.99-8.272h7.979a28.31,28.31,0,0,1-3.99,8.272m4.888-12.449H16a26.318,26.318,0,0,1,0-8.355h9.776a30.388,30.388,0,0,1,.334,4.178,30.719,30.719,0,0,1-.334,4.178" fill="#fff"/>
    <path id="Caminho_234" data-name="Caminho 234" d="M23.57,15.174l2.316,1.339L22.338,10.6l-6.883-.109,2.316,1.339-1.339,2.316a3.357,3.357,0,0,0-.119,3.536l3.346,5.8a3.364,3.364,0,0,0,2.9,1.671c.081,0,.165,0,.249-.01h4.819V18.441H21.682Z" transform="translate(16.827 11.418)" fill="#fff"/>
    <path id="Caminho_235" data-name="Caminho 235" d="M31.376,23.749l3.348-5.8A3.331,3.331,0,0,0,34.6,14.4l-2.41-4.178-5.8,3.348,2.972,5.155H25.592V16.05l-3.348,6.026L25.592,28.1V25.422H28.27a3.308,3.308,0,0,0,3.106-1.673" transform="translate(24.219 11.132)" fill="#fff"/>
    <path id="Caminho_236" data-name="Caminho 236" d="M26.309,10.257,28.2,13.538l-2.316,1.339,6.9-.119,3.536-5.9L34,10.192,32.657,7.863a3.362,3.362,0,0,0-3-1.863h-6.7a3.366,3.366,0,0,0-3.012,1.888l-2.41,4.178,5.811,3.348Z" transform="translate(19.095 6.533)" fill="#fff"/>
  </g>
</svg>
