<svg id="MDI_flower-tulip-outline" data-name="MDI / flower-tulip-outline" xmlns="http://www.w3.org/2000/svg" width="61.5" height="61.5" viewBox="0 0 61.5 61.5">
  <g id="Boundary" fill="#f05423" stroke="rgba(0,0,0,0)" stroke-width="1" opacity="0">
    <rect width="61.5" height="61.5" stroke="none"/>
    <rect x="0.5" y="0.5" width="60.5" height="60.5" fill="none"/>
  </g>
  <path id="Path_flower-tulip-outline" data-name="Path / flower-tulip-outline" d="M3,30.188A23.063,23.063,0,0,0,26.063,53.25,23.063,23.063,0,0,0,3,30.188M9.253,36.44A17.9,17.9,0,0,1,19.81,47,17.9,17.9,0,0,1,9.253,36.44m16.81,16.81A23.063,23.063,0,0,0,49.125,30.188,23.062,23.062,0,0,0,26.063,53.25m6.2-6.227A17.62,17.62,0,0,1,42.9,36.389,18.016,18.016,0,0,1,32.264,47.023m-6.2-14.273A15.375,15.375,0,0,0,41.438,17.375V4.563a15.118,15.118,0,0,0-5.535,1,10.973,10.973,0,0,0-3.716,2.562L26.063,2,19.938,8.124a10.973,10.973,0,0,0-3.716-2.562,15.118,15.118,0,0,0-5.535-1V17.375A15.375,15.375,0,0,0,26.063,32.75m-10.25-21.5,4.023,4.228,6.227-6.227,6.227,6.227,4.023-4.228v6.124a10.25,10.25,0,0,1-20.5,0Z" transform="translate(4.688 3.125)" fill="#f05423"/>
</svg>
