<svg xmlns="http://www.w3.org/2000/svg" width="120.34" height="120.338" viewBox="0 0 120.34 120.338">
  <path id="noun-conclusion-4508188-1" d="M167.787,0c-13.434,0-22.531,11.342-22.553,22.538-.015,7.523,3.177,12.223,6.085,15.667,1.454,1.722,2.822,3.175,3.75,4.554a9.331,9.331,0,0,1,1.351,2.372,1.87,1.87,0,0,0,.085,3.739c-.091,2.466-.007,5.023-.007,7.521a5.869,5.869,0,0,0,5.652,5.637v1.891a5.643,5.643,0,0,0,11.286,0V62.026a5.87,5.87,0,0,0,5.637-5.637c0-2.494.021-5.053,0-7.521a1.875,1.875,0,0,0,1.888-1.877,1.812,1.812,0,0,0-1.8-1.869,9.492,9.492,0,0,1,1.355-2.366c.928-1.377,2.3-2.831,3.75-4.553,2.908-3.444,6.066-7.949,6.066-15.667A22.44,22.44,0,0,0,167.787,0ZM74.852,3.73a4.891,4.891,0,0,0-4.858,4.862V28.959a4.885,4.885,0,0,0,4.858,4.855H95.216a4.888,4.888,0,0,0,4.863-4.855V23.168a1.873,1.873,0,1,0-3.745,0v5.791a1.068,1.068,0,0,1-1.116,1.095H74.852a1.053,1.053,0,0,1-1.1-1.095V8.592a1.055,1.055,0,0,1,1.1-1.1H89.428a1.882,1.882,0,0,0,0-3.764Zm92.935.029a18.686,18.686,0,0,1,18.784,18.777c0,6.2-2.46,10.027-5.182,13.25a57.394,57.394,0,0,0-4,4.858,12.271,12.271,0,0,0-2.078,4.458l-15.046,0a12.235,12.235,0,0,0-2.076-4.462,57.49,57.49,0,0,0-4-4.858c-2.721-3.222-5.182-7.138-5.211-13.25a18.893,18.893,0,0,1,18.8-18.777Zm1.884,3.72a12.694,12.694,0,0,0-11.061,6.6,1.929,1.929,0,0,0,3.372,1.874,8.817,8.817,0,0,1,7.694-4.62A1.925,1.925,0,0,0,171.593,9.4a1.89,1.89,0,0,0-1.921-1.917ZM94.44,9.371a1.879,1.879,0,0,0-1.333.555L85.043,17.99l-4.315-4.3a1.881,1.881,0,0,0-2.655,2.666l5.637,5.633a1.881,1.881,0,0,0,2.666,0l9.4-9.394a1.888,1.888,0,0,0-1.333-3.221Zm11.289,0a1.88,1.88,0,1,0,0,3.761h16.923a1.88,1.88,0,1,0,0-3.761Zm0,7.521a1.88,1.88,0,1,0,0,3.761h24.444a1.88,1.88,0,0,0,0-3.761Zm50.776,1.884a1.88,1.88,0,1,0,1.88,1.88A1.88,1.88,0,0,0,156.506,18.776Zm22.677,1.877a1.882,1.882,0,0,0-1.359.473l-9.328,8.3-5.1-4.543a1.885,1.885,0,0,0-2.5,2.82l6.349,5.637a1.88,1.88,0,0,0,2.5,0l10.577-9.4a1.893,1.893,0,0,0-1.139-3.291ZM105.73,24.417a1.882,1.882,0,1,0,0,3.765h33.845a1.882,1.882,0,1,0,0-3.765Zm22.555,13.162a13.162,13.162,0,0,0-8.752,22.99A15.285,15.285,0,0,0,107.6,75.354V92.111H90.676A1.88,1.88,0,0,0,88.8,94V105.1a1.879,1.879,0,0,0,.889,1.6l10.386,6.474v5.27a1.88,1.88,0,0,0,1.888,1.891h52.659a1.88,1.88,0,0,0,1.873-1.891v-5.2l10.36-6.015a1.879,1.879,0,0,0,.929-1.627V94a1.88,1.88,0,0,0-1.873-1.888l-22.589.022-.015-6.272a1.5,1.5,0,0,0,1.41.631h13.646a5.641,5.641,0,0,0,0-11.282l-6.981.015C147.327,71.351,144.118,65.168,140,62.07a9.074,9.074,0,0,0-3.034-1.432,13.158,13.158,0,0,0-8.685-23.059ZM74.85,41.339A4.891,4.891,0,0,0,69.992,46.2V66.58a4.887,4.887,0,0,0,4.858,4.858H95.214a4.891,4.891,0,0,0,4.863-4.858v-5.8a1.873,1.873,0,1,0-3.745,0v5.8a1.07,1.07,0,0,1-1.116,1.1H74.85a1.055,1.055,0,0,1-1.1-1.1V46.2a1.055,1.055,0,0,1,1.1-1.1H89.426a1.882,1.882,0,0,0,0-3.765Zm53.434,0a9.405,9.405,0,1,1-9.4,9.416A9.4,9.4,0,0,1,128.284,41.339ZM94.439,46.98a1.879,1.879,0,0,0-1.333.555l-8.064,8.076L80.727,51.3a1.881,1.881,0,0,0-2.655,2.666l5.637,5.633a1.881,1.881,0,0,0,2.666,0l9.4-9.4a1.886,1.886,0,0,0-1.333-3.218Zm65.825,1.888H175.31c-.065,2.479,0,5.02,0,7.521a1.948,1.948,0,0,1-.609,1.263,2.022,2.022,0,0,1-1.263.609H162.144a2.019,2.019,0,0,1-1.26-.609,1.983,1.983,0,0,1-.628-1.263c.007-2.488.059-5.069.007-7.521Zm5.648,13.159h3.761v1.891a1.88,1.88,0,0,1-3.761,0Zm-42.776,1.891H132.9c2.686,0,3.878.439,4.884,1.179a19.991,19.991,0,0,1,3.522,3.569l7.668,9.578a2.09,2.09,0,0,0,1.524.742l7.87-.015a1.88,1.88,0,0,1,0,3.761H145.484l-5.3-5.182a1.886,1.886,0,0,0-2.637,2.7l2.031,2.163-.011,9.725h-18.8l-.008-11.274a1.88,1.88,0,1,0-3.761,0L117,92.133l-5.637-.022V75.354a11.543,11.543,0,0,1,11.774-11.436ZM92.567,95.874h71.455v8.648L156.5,108.9v-3.614a1.873,1.873,0,1,0-3.745,0v11.289H103.838V105.283a1.88,1.88,0,0,0-3.761,0v3.459l-7.51-4.679Z" transform="translate(-69.992 0.001)" fill="#f47920"/>
</svg>
