<svg xmlns="http://www.w3.org/2000/svg" width="32.418" height="32.418" viewBox="0 0 32.418 32.418">
  <path id="car-info" d="M31.816,23.811h-3.6v-3.6h3.6m1.8,12.607v3.6h-7.2v-3.6h1.8v-3.6h-1.8v-3.6h5.4v7.2M31.672,5.8A2.7,2.7,0,0,0,29.115,4H9.3A2.7,2.7,0,0,0,6.746,5.8L3,16.607V31.015a1.8,1.8,0,0,0,1.8,1.8H6.6a1.8,1.8,0,0,0,1.8-1.8v-1.8h9.005A12.607,12.607,0,0,1,30.015,16.607a12.319,12.319,0,0,1,5.4,1.225V16.607M9.3,23.811a2.7,2.7,0,1,1,2.7-2.7,2.7,2.7,0,0,1-2.7,2.7M6.6,14.806,9.3,6.7H29.115l2.7,8.1Z" transform="translate(-3 -4)" fill="#f47920"/>
</svg>
