<svg xmlns="http://www.w3.org/2000/svg" width="38.412" height="27.937" viewBox="0 0 38.412 27.937">
  <path id="Caminho_15" data-name="Caminho 15" d="M4.558,12.534,3.51,11.662C.018,8.343-2.426,6.247-2.426,3.631A3.875,3.875,0,0,1,1.414-.212a4.092,4.092,0,0,1,3.143,1.4A4.092,4.092,0,0,1,7.7-.212a3.764,3.764,0,0,1,3.84,3.843c0,2.617-2.444,4.712-5.936,8.031ZM22.019-6.672A6.985,6.985,0,0,0,15.033.312a6.985,6.985,0,1,0,6.986-6.984m0,10.651a3.667,3.667,0,0,1,0-7.335A3.665,3.665,0,0,1,25.684.312a3.665,3.665,0,0,1-3.664,3.667m0,5.063c-4.663,0-13.97,2.323-13.97,6.984v5.239H35.986V16.026c0-4.66-9.307-6.984-13.967-6.984m10.651,8.9h-21.3v-1.92c0-1.117,5.412-3.667,10.651-3.667,5.184,0,10.651,2.55,10.651,3.667Z" transform="translate(2.426 6.672)" fill="#f05423"/>
</svg>
