<svg xmlns="http://www.w3.org/2000/svg" xmlns:xlink="http://www.w3.org/1999/xlink" width="111" height="111" viewBox="0 0 111 111">
  <defs>
    <clipPath id="clip-path">
      <circle id="Elipse_1" data-name="Elipse 1" cx="55.5" cy="55.5" r="55.5" transform="translate(718 8757)" fill="#7d551b" stroke="#707070" stroke-width="1"/>
    </clipPath>
  </defs>
  <g id="Grupo_de_m치scara_11" data-name="Grupo de m치scara 11" transform="translate(-718 -8757)" clip-path="url(#clip-path)">
    <g id="Grupo_137" data-name="Grupo 137" transform="translate(713.226 8751.032)">
      <g id="Ret칙ngulo_61" data-name="Ret칙ngulo 61" transform="translate(-0.226 -0.032)" fill="#fff" stroke="#707070" stroke-width="1" opacity="0.88">
        <rect width="123" height="100" stroke="none"/>
        <rect x="0.5" y="0.5" width="122" height="99" fill="none"/>
      </g>
      <g id="MDI_sprout-outline" data-name="MDI / sprout-outline" transform="translate(24.964 26.096)">
        <path id="Path_sprout-outline" data-name="Path / sprout-outline" d="M72.259,9V3l-6-.667A51.488,51.488,0,0,0,60.588,2C46.917,2,36.913,6,31.244,13,26.909,10.336,20.907,8.669,13.9,8.669A44.336,44.336,0,0,0,8.236,9L1.9,10l.333,5.669c.333,10,5.335,29.011,22.675,29.011h.667V56.02a106.463,106.463,0,0,0-23.342,6v6.669H68.925V62.022a106.463,106.463,0,0,0-23.342-6V45.349C66.591,45.016,72.259,21.34,72.259,9m-36.68,46.35H32.245V36.679s-.667-11.338-10-11.338c0,0,5,2.668,6.336,12.338a14.954,14.954,0,0,1-3.668.333C9.569,38.013,8.9,15.672,8.9,15.672a33.6,33.6,0,0,1,5-.333c6.336,0,16.673,1.334,19.674,10.337C35.246,10.67,52.252,8.669,60.588,8.669a33.594,33.594,0,0,1,5,.333s0,30.011-21.008,30.011H42.248c0-6.669,6.669-16.673,6.669-16.673-10,3.335-10,16.339-10,16.339V55.353Z" transform="translate(-1.9 -2)" fill="#f05423"/>
      </g>
      <path id="Caminho_154" data-name="Caminho 154" d="M7620.807,8834.126s29.143-13.237,49.522-13.237,43.764,9.6,53.745,24.953-8.445,19.579-8.445,19.579l-67.567,5.76-29.56-15.355-4.991-14.206Z" transform="translate(-7611.216 -8743.355)" fill="#f05423"/>
    </g>
  </g>
</svg>
