<svg id="Grupo_188" data-name="Grupo 188" xmlns="http://www.w3.org/2000/svg" width="44.631" height="39.61" viewBox="0 0 44.631 39.61">
  <path id="bicycle-basket" d="M21.832,21.406,26.295,10.9l-2.008-4.11H19.526V4h6.509l1.358,2.789H40.447L38.587,13.3H30.572l1.246,2.548a9.18,9.18,0,0,1,3.515-.688A9.328,9.328,0,1,1,29.419,17.3l-1.525-3.068L22.78,26.315H18.41a9.162,9.162,0,1,1,.186-2.789h1.079L15.435,13.3H13.947a1.395,1.395,0,1,1,0-2.789h5.114a1.395,1.395,0,1,1,0,2.789H18.54l3.292,8.108M9.3,17.947a6.509,6.509,0,1,0,6.248,8.368H7.438V23.526h8.312A6.529,6.529,0,0,0,9.3,17.947m26.035,0a6.651,6.651,0,0,0-2.287.409l3.589,7.364-2.51,1.227L30.684,19.9a6.509,6.509,0,1,0,4.649-1.953Z" transform="translate(0 -4)" fill="#858280"/>
  <g id="Grupo_27" data-name="Grupo 27" transform="translate(17.434 19.098)">
    <g id="lightning-bolt" transform="translate(0.649 0) rotate(2)" fill="#858280" stroke-linejoin="round">
      <path d="M 4.993603229522705 18.9509105682373 L 3.57585334777832 18.60942077636719 L 3.57585334777832 12.59236145019531 L -6.650237992289476e-06 12.59236145019531 L -1.225946664810181 12.59236145019531 L -0.6677566766738892 11.5008716583252 L 5.388443470001221 -0.3414886593818665 L 6.806193351745605 1.34185791011987e-06 L 6.806193351745605 6.017061233520508 L 10.38205337524414 6.017061233520508 L 11.60799312591553 6.017061233520508 L 11.04980373382568 7.108551502227783 L 4.993603229522705 18.9509105682373 Z" stroke="none"/>
      <path d="M 4.32585334777832 18.60942077636719 L 10.38205337524414 6.767061233520508 L 6.056193351745605 6.767061233520508 L 6.056193351745605 1.34185791011987e-06 L -6.650237992289476e-06 11.84236145019531 L 4.32585334777832 11.84236145019531 L 4.32585334777832 18.60942077636719 M 4.326178550720215 20.10956382751465 C 4.209675788879395 20.10956382751465 4.091819763183594 20.09594535827637 3.974603414535522 20.06771087646484 C 3.300753355026245 19.90541076660156 2.82585334777832 19.30254173278809 2.82585334777832 18.60942077636719 L 2.82585334777832 13.34236145019531 L -6.650237992289476e-06 13.34236145019531 C -0.522296667098999 13.34236145019531 -1.006986618041992 13.07068157196045 -1.279546618461609 12.62516117095947 C -1.552116632461548 12.17963123321533 -1.573306679725647 11.6244010925293 -1.335496664047241 11.15939140319824 L 4.720703125 -0.6829686760902405 C 5.036293506622314 -1.300078511238098 5.733592510223389 -1.620598793029785 6.407443523406982 -1.458288669586182 C 7.08129358291626 -1.29598867893219 7.556193351745605 -0.6931186318397522 7.556193351745605 1.34185791011987e-06 L 7.556193351745605 5.267061233520508 L 10.38205337524414 5.267061233520508 C 10.9043436050415 5.267061233520508 11.38903331756592 5.538741111755371 11.66159343719482 5.984261512756348 C 11.93416309356689 6.429791450500488 11.95535373687744 6.985021114349365 11.71754360198975 7.450031280517578 L 5.661343574523926 19.29239082336426 C 5.400650501251221 19.80215454101562 4.879424095153809 20.10956382751465 4.326178550720215 20.10956382751465 Z" stroke="none" fill="#fff"/>
    </g>
  </g>
</svg>
