<svg id="Grupo_91" data-name="Grupo 91" xmlns="http://www.w3.org/2000/svg" xmlns:xlink="http://www.w3.org/1999/xlink" width="117.645" height="117.645" viewBox="0 0 117.645 117.645">
  <defs>
    <clipPath id="clip-path">
      <path id="Caminho_33" data-name="Caminho 33" d="M0,43.849H117.645V-73.8H0Z" transform="translate(0 73.796)" fill="#f05423"/>
    </clipPath>
  </defs>
  <g id="Grupo_40" data-name="Grupo 40" transform="translate(0 0)" clip-path="url(#clip-path)">
    <g id="Grupo_38" data-name="Grupo 38" transform="translate(0.318 0.319)">
      <path id="Caminho_31" data-name="Caminho 31" d="M42.907,36.577H41.02V-23.814a7.548,7.548,0,0,0-2.211-5.337,7.548,7.548,0,0,0-5.337-2.211H7.89a7.477,7.477,0,0,0,1.049-3.775V-40.8a1.887,1.887,0,0,0-.553-1.334,1.887,1.887,0,0,0-1.334-.553h-15.1V-54.01a7.55,7.55,0,0,0-2.211-5.337A7.554,7.554,0,0,0-15.6-61.558H-45.79a7.551,7.551,0,0,0-5.339,2.211A7.55,7.55,0,0,0-53.34-54.01v22.647h-7.548a7.548,7.548,0,0,0-5.337,2.211,7.548,7.548,0,0,0-2.211,5.337V36.577h-1.888a1.887,1.887,0,0,0-1.887,1.888v7.548a9.457,9.457,0,0,0,2.768,6.67,9.452,9.452,0,0,0,6.668,2.766H35.359a9.443,9.443,0,0,0,9.436-9.436V38.465a1.886,1.886,0,0,0-1.888-1.888ZM-17.484-35.138a3.775,3.775,0,0,1-1.888,3.27,3.772,3.772,0,0,1-3.773,0,3.775,3.775,0,0,1-1.888-3.27v-3.773h7.548Zm-3.773,7.55A7.5,7.5,0,0,0-15.6-30.2a7.446,7.446,0,0,0,5.661,2.61A7.447,7.447,0,0,0-4.273-30.2a7.5,7.5,0,0,0,5.661,2.61v11.322H-2.385A7.552,7.552,0,0,0-6.16-22.8a7.555,7.555,0,0,0-7.548,0,7.554,7.554,0,0,0-3.775,6.538h-3.773Zm11.322,7.548a3.777,3.777,0,0,1,2.67,1.1,3.776,3.776,0,0,1,1.1,2.669h-7.548a3.776,3.776,0,0,1,1.1-2.669,3.776,3.776,0,0,1,2.669-1.1m-39.632,15.1h37.746V2.606a3.778,3.778,0,0,1-1.106,2.67,3.773,3.773,0,0,1-2.669,1.1h-30.2a3.773,3.773,0,0,1-2.669-1.1,3.778,3.778,0,0,1-1.106-2.67Zm3.775,15.1h30.2a7.548,7.548,0,0,0,5.337-2.211A7.551,7.551,0,0,0-8.048,2.606v-15.1H3.276a1.887,1.887,0,0,0,1.334-.553,1.887,1.887,0,0,0,.553-1.334v-5.661H29.7V29.029H-57.115V-20.039h3.775V2.606a7.551,7.551,0,0,0,2.211,5.339,7.548,7.548,0,0,0,5.337,2.211M5.163-35.138a3.775,3.775,0,0,1-1.888,3.27,3.775,3.775,0,0,1-3.775,0,3.776,3.776,0,0,1-1.886-3.27v-3.773H5.163Zm-11.324,0a3.775,3.775,0,0,1-1.888,3.27,3.772,3.772,0,0,1-3.773,0,3.775,3.775,0,0,1-1.888-3.27v-3.773H-6.16ZM-15.6-42.686H-26.92A1.887,1.887,0,0,0-28.807-40.8v5.661a7.529,7.529,0,0,0,3.775,6.5v14.258a1.887,1.887,0,0,0,.553,1.334,1.887,1.887,0,0,0,1.334.553h11.324v3.775H-49.567V-46.461h37.746v3.775Zm-30.2-15.1h30.2a3.773,3.773,0,0,1,2.669,1.1,3.775,3.775,0,0,1,1.106,2.669v3.775H-49.567V-54.01a3.775,3.775,0,0,1,1.106-2.669,3.773,3.773,0,0,1,2.669-1.1M-64.664-23.814a3.773,3.773,0,0,1,1.1-2.669,3.777,3.777,0,0,1,2.67-1.1h7.548v3.773H-59a1.887,1.887,0,0,0-1.886,1.888V30.916a1.889,1.889,0,0,0,.552,1.334A1.889,1.889,0,0,0-59,32.8H31.584a1.886,1.886,0,0,0,1.888-1.886V-21.926a1.887,1.887,0,0,0-.553-1.334,1.887,1.887,0,0,0-1.334-.553H5.163v-3.773H33.471a3.773,3.773,0,0,1,2.669,1.1,3.775,3.775,0,0,1,1.106,2.669V36.577H-64.664ZM-26.92,40.352H-.5v1.886a1.889,1.889,0,0,1-.552,1.336,1.886,1.886,0,0,1-1.334.552H-25.032a1.887,1.887,0,0,1-1.888-1.888ZM41.02,46.013a5.661,5.661,0,0,1-5.661,5.661H-62.776a5.657,5.657,0,0,1-4-1.658,5.66,5.66,0,0,1-1.658-4V40.352h37.744v1.886a5.664,5.664,0,0,0,1.658,4,5.66,5.66,0,0,0,4,1.658H-2.385a5.663,5.663,0,0,0,4-1.658,5.664,5.664,0,0,0,1.658-4V40.352H41.02Z" transform="translate(72.212 61.558)" fill="#f05423"/>
    </g>
    <g id="Grupo_39" data-name="Grupo 39" transform="translate(0.318 0.319)">
      <path id="Caminho_32" data-name="Caminho 32" d="M42.907,36.577H41.02V-23.814a7.548,7.548,0,0,0-2.211-5.337,7.548,7.548,0,0,0-5.337-2.211H7.89a7.477,7.477,0,0,0,1.049-3.775V-40.8a1.887,1.887,0,0,0-.553-1.334,1.887,1.887,0,0,0-1.334-.553h-15.1V-54.01a7.55,7.55,0,0,0-2.211-5.337A7.554,7.554,0,0,0-15.6-61.558H-45.79a7.551,7.551,0,0,0-5.339,2.211A7.55,7.55,0,0,0-53.34-54.01v22.647h-7.548a7.548,7.548,0,0,0-5.337,2.211,7.548,7.548,0,0,0-2.211,5.337V36.577h-1.888a1.887,1.887,0,0,0-1.887,1.888v7.548a9.457,9.457,0,0,0,2.768,6.67,9.452,9.452,0,0,0,6.668,2.766H35.359a9.443,9.443,0,0,0,9.436-9.436V38.465a1.886,1.886,0,0,0-1.888-1.888ZM-17.484-35.138a3.775,3.775,0,0,1-1.888,3.27,3.772,3.772,0,0,1-3.773,0,3.775,3.775,0,0,1-1.888-3.27v-3.773h7.548Zm-3.773,7.55A7.5,7.5,0,0,0-15.6-30.2a7.446,7.446,0,0,0,5.661,2.61A7.447,7.447,0,0,0-4.273-30.2a7.5,7.5,0,0,0,5.661,2.61v11.322H-2.385A7.552,7.552,0,0,0-6.16-22.8a7.555,7.555,0,0,0-7.548,0,7.554,7.554,0,0,0-3.775,6.538h-3.773Zm11.322,7.548a3.777,3.777,0,0,1,2.67,1.1,3.776,3.776,0,0,1,1.1,2.669h-7.548a3.776,3.776,0,0,1,1.1-2.669A3.776,3.776,0,0,1-9.935-20.039Zm-39.632,15.1h37.746V2.606a3.778,3.778,0,0,1-1.106,2.67,3.773,3.773,0,0,1-2.669,1.1h-30.2a3.773,3.773,0,0,1-2.669-1.1,3.778,3.778,0,0,1-1.106-2.67Zm3.775,15.1h30.2a7.548,7.548,0,0,0,5.337-2.211A7.551,7.551,0,0,0-8.048,2.606v-15.1H3.276a1.887,1.887,0,0,0,1.334-.553,1.887,1.887,0,0,0,.553-1.334v-5.661H29.7V29.029H-57.115V-20.039h3.775V2.606a7.551,7.551,0,0,0,2.211,5.339A7.548,7.548,0,0,0-45.792,10.157ZM5.163-35.138a3.775,3.775,0,0,1-1.888,3.27,3.775,3.775,0,0,1-3.775,0,3.776,3.776,0,0,1-1.886-3.27v-3.773H5.163Zm-11.324,0a3.775,3.775,0,0,1-1.888,3.27,3.772,3.772,0,0,1-3.773,0,3.775,3.775,0,0,1-1.888-3.27v-3.773H-6.16ZM-15.6-42.686H-26.92A1.887,1.887,0,0,0-28.807-40.8v5.661a7.529,7.529,0,0,0,3.775,6.5v14.258a1.887,1.887,0,0,0,.553,1.334,1.887,1.887,0,0,0,1.334.553h11.324v3.775H-49.567V-46.461h37.746v3.775Zm-30.2-15.1h30.2a3.773,3.773,0,0,1,2.669,1.1,3.775,3.775,0,0,1,1.106,2.669v3.775H-49.567V-54.01a3.775,3.775,0,0,1,1.106-2.669A3.773,3.773,0,0,1-45.792-57.783ZM-64.664-23.814a3.773,3.773,0,0,1,1.1-2.669,3.777,3.777,0,0,1,2.67-1.1h7.548v3.773H-59a1.887,1.887,0,0,0-1.886,1.888V30.916a1.889,1.889,0,0,0,.552,1.334A1.889,1.889,0,0,0-59,32.8H31.584a1.886,1.886,0,0,0,1.888-1.886V-21.926a1.887,1.887,0,0,0-.553-1.334,1.887,1.887,0,0,0-1.334-.553H5.163v-3.773H33.471a3.773,3.773,0,0,1,2.669,1.1,3.775,3.775,0,0,1,1.106,2.669V36.577H-64.664ZM-26.92,40.352H-.5v1.886a1.889,1.889,0,0,1-.552,1.336,1.886,1.886,0,0,1-1.334.552H-25.032a1.887,1.887,0,0,1-1.888-1.888ZM41.02,46.013a5.661,5.661,0,0,1-5.661,5.661H-62.776a5.657,5.657,0,0,1-4-1.658,5.66,5.66,0,0,1-1.658-4V40.352h37.744v1.886a5.664,5.664,0,0,0,1.658,4,5.66,5.66,0,0,0,4,1.658H-2.385a5.663,5.663,0,0,0,4-1.658,5.664,5.664,0,0,0,1.658-4V40.352H41.02Z" transform="translate(72.212 61.558)" fill="#f05423" stroke="#fdede9" stroke-width="0.4"/>
    </g>
  </g>
  <path id="Caminho_34" data-name="Caminho 34" d="M23.864-35.732h7.6V-31.9h-7.6Z" transform="translate(14.18 96.413)" fill="#f05423" stroke="#fdede9" stroke-width="0.4"/>
  <g id="Grupo_45" data-name="Grupo 45" transform="translate(0 0)" clip-path="url(#clip-path)">
    <g id="Grupo_41" data-name="Grupo 41" transform="translate(75.77 56.908)">
      <path id="Caminho_35" data-name="Caminho 35" d="M3.656,10.975a1.893,1.893,0,0,0,3.075,0L13.988.82v0A13.6,13.6,0,0,0,16.54-7.132a10.932,10.932,0,0,0-3.23-7.788l-.324-.325A11.024,11.024,0,0,0,5.193-18.47,11.02,11.02,0,0,0-2.6-15.245l-.325.325A10.937,10.937,0,0,0-6.153-7.132,13.594,13.594,0,0,0-3.6.821ZM-.251-12.248l.325-.324A7.244,7.244,0,0,1,5.193-14.69a7.245,7.245,0,0,1,5.121,2.119l.325.324a7.184,7.184,0,0,1,2.119,5.116,9.859,9.859,0,0,1-1.844,5.757l-5.72,8-5.718-8A9.859,9.859,0,0,1-2.37-7.132,7.184,7.184,0,0,1-.251-12.248" transform="translate(6.153 18.47)" fill="#f05423"/>
    </g>
    <g id="Grupo_42" data-name="Grupo 42" transform="translate(75.77 56.908)">
      <path id="Caminho_36" data-name="Caminho 36" d="M3.656,10.975a1.893,1.893,0,0,0,3.075,0L13.988.82v0A13.6,13.6,0,0,0,16.54-7.132a10.932,10.932,0,0,0-3.23-7.788l-.324-.325A11.024,11.024,0,0,0,5.193-18.47,11.02,11.02,0,0,0-2.6-15.245l-.325.325A10.937,10.937,0,0,0-6.153-7.132,13.594,13.594,0,0,0-3.6.821ZM-.251-12.248l.325-.324A7.244,7.244,0,0,1,5.193-14.69a7.245,7.245,0,0,1,5.121,2.119l.325.324a7.184,7.184,0,0,1,2.119,5.116,9.859,9.859,0,0,1-1.844,5.757l-5.72,8-5.718-8A9.859,9.859,0,0,1-2.37-7.132,7.184,7.184,0,0,1-.251-12.248Z" transform="translate(6.153 18.47)" fill="#f05423" stroke="#fdede9" stroke-width="0.4"/>
    </g>
    <g id="Grupo_43" data-name="Grupo 43" transform="translate(30.499 53.135)">
      <path id="Caminho_37" data-name="Caminho 37" d="M2.111,12.676H45.547V8.9H2.111a1.89,1.89,0,0,1,0-3.78H32.328a5.665,5.665,0,0,0,4.006-1.66A5.674,5.674,0,0,0,37.992-.549V-21.334H34.215V-.549A1.894,1.894,0,0,1,33.662.787a1.887,1.887,0,0,1-1.334.553H2.111a5.668,5.668,0,0,0,0,11.336" transform="translate(3.553 21.334)" fill="#f05423"/>
    </g>
    <g id="Grupo_44" data-name="Grupo 44" transform="translate(30.499 53.135)">
      <path id="Caminho_38" data-name="Caminho 38" d="M2.111,12.676H45.547V8.9H2.111a1.89,1.89,0,0,1,0-3.78H32.328a5.665,5.665,0,0,0,4.006-1.66A5.674,5.674,0,0,0,37.992-.549V-21.334H34.215V-.549A1.894,1.894,0,0,1,33.662.787a1.887,1.887,0,0,1-1.334.553H2.111a5.668,5.668,0,0,0,0,11.336Z" transform="translate(3.553 21.334)" fill="#f05423" stroke="#fdede9" stroke-width="0.4"/>
    </g>
  </g>
  <path id="Caminho_40" data-name="Caminho 40" d="M4.932-7.335H8.761v3.829H4.932Z" transform="translate(2.931 113.286)" fill="#f05423" stroke="#fdede9" stroke-width="0.4"/>
  <path id="Caminho_41" data-name="Caminho 41" d="M9.665-7.335h3.829v3.829H9.665Z" transform="translate(5.743 113.286)" fill="#f05423" stroke="#fdede9" stroke-width="0.4"/>
</svg>
