<svg xmlns="http://www.w3.org/2000/svg" width="40.301" height="42.421" viewBox="0 0 40.301 42.421">
  <g id="Grupo_26" data-name="Grupo 26" transform="translate(-982.68 -2526.667)">
    <path id="recycle-variant" d="M9.889,11.068l2.57,1.486L17.184,4.4l3.343,5.779L16.664,12.4l8.111,2.169,2.184-8.111L23.1,8.691,19.754,2.9A2.954,2.954,0,0,0,15.7,1.813a2.859,2.859,0,0,0-1,.936m-.609,26.28V26.058H4.675L8,20.264l3.863,2.228L9.7,14.381,1.57,16.55l3.863,2.228L2.09,24.572a2.976,2.976,0,0,0,1.084,4.056,3.122,3.122,0,0,0,1.322.4M27.553,16.4l-2.585,1.486,4.724,8.171H23.007V21.6l-5.942,5.942,5.942,5.942V29.029h6.685a2.961,2.961,0,0,0,2.971-2.971,2.9,2.9,0,0,0-.327-1.322Z" transform="translate(981.11 2525.26)" fill="#f05423"/>
    <g id="leaf" transform="matrix(0.985, 0.174, -0.174, 0.985, 999.76, 2542.707)" fill="#f05423">
      <path d="M 4.458208560943604 22.01760482788086 L 4.011768341064453 21.8617057800293 L 1.884068608283997 21.11869430541992 L 1.389528512954712 20.94599533081055 L 1.585038542747498 20.46002578735352 C 1.684158563613892 20.21366500854492 1.783308506011963 19.96528434753418 1.883098602294922 19.71533584594727 C 3.046748638153076 16.80044555664062 4.25001859664917 13.78630542755127 6.439618587493896 11.13439559936523 C 7.601499557495117 9.727195739746094 8.948062896728516 8.551848411560059 10.498948097229 7.596947193145752 C 6.561189651489258 9.300690650939941 3.851572513580322 12.19563293457031 2.441828489303589 16.20797538757324 L 2.178428649902344 16.95766448974609 L 1.616548538208008 16.39578437805176 C 1.530128598213196 16.30936431884766 -0.5000014305114746 14.25130558013916 -0.5000014305114746 11.82059478759766 C -0.5000014305114746 10.69036483764648 0.0084885498508811 8.832915306091309 1.43561851978302 7.009355068206787 C 2.524098634719849 5.618535041809082 4.508748531341553 3.823185205459595 7.782338619232178 3.168465137481689 C 9.397368431091309 2.845455169677734 11.20484828948975 2.59012508392334 12.95280838012695 2.343205213546753 C 16.90289878845215 1.785205125808716 21.38002777099609 1.15275514125824 22.06820869445801 -0.223604828119278 L 23.00780868530273 0.0868951752781868 C 22.97281837463379 0.2851851582527161 22.12327766418457 4.998195171356201 19.72603797912598 9.792665481567383 C 18.30775833129883 12.62923526763916 16.64033889770508 14.89420509338379 14.77009868621826 16.5246753692627 C 12.40035820007324 18.59060478210449 9.703568458557129 19.63811492919922 6.754628658294678 19.63811492919922 C 6.378306865692139 19.63811492919922 5.929194927215576 19.53751945495605 5.531419277191162 19.4193172454834 L 4.638738632202148 21.58053588867188 L 4.458208560943604 22.01760482788086 Z" stroke="none"/>
      <path d="M 22.51541900634766 -5.7220458984375e-06 C 21.3896484375 2.251544952392578 13.50924873352051 2.532985687255859 7.880398750305176 3.658754348754883 C 2.25153923034668 4.784524917602539 -1.9073486328125e-06 9.569055557250977 -1.9073486328125e-06 11.82059478759766 C -1.9073486328125e-06 14.07214546203613 1.970098495483398 16.042236328125 1.970098495483398 16.042236328125 C 5.62885856628418 5.628854751586914 16.88656806945801 5.628854751586914 16.88656806945801 5.628854751586914 C 6.75462818145752 7.88039493560791 4.390508651733398 14.8264045715332 2.048898696899414 20.64664459228516 L 4.176609039306641 21.38964462280273 L 5.246099472045898 18.80037498474121 C 5.786468505859375 18.99175453186035 6.349348068237305 19.13811492919922 6.75462818145752 19.13811492919922 C 19.13810920715332 19.13811492919922 22.51541900634766 -5.7220458984375e-06 22.51541900634766 -5.7220458984375e-06 M 21.6209888458252 -0.4472141265869141 L 23.50019836425781 0.1737842559814453 C 23.46469879150391 0.3749942779541016 22.60265922546387 5.157464981079102 20.17325782775879 10.01626491546631 C 18.72565841674805 12.91146564483643 17.01831817626953 15.22801494598389 15.09866905212402 16.90155410766602 C 12.63521862030029 19.04917526245117 9.827878952026367 20.13811492919922 6.75462818145752 20.13811492919922 C 6.486635208129883 20.13811492919922 6.1761474609375 20.0970630645752 5.826103210449219 20.01559066772461 L 4.739809036254883 22.64553451538086 L 0.7301292419433594 21.24534606933594 L 1.12116813659668 20.27339553833008 C 1.220119476318359 20.02744483947754 1.319108963012695 19.77947616577148 1.418727874755859 19.52993583679199 C 1.661378860473633 18.92211151123047 1.911094665527344 18.29660034179688 2.175973892211914 17.66232109069824 L 1.262998580932617 16.74934577941895 C 1.170589447021484 16.65694427490234 -1.000001907348633 14.4560546875 -1.000001907348633 11.82059478759766 C -1.000001907348633 10.60702514648438 -0.4636020660400391 8.624865531921387 1.041868209838867 6.701205253601074 C 2.182397842407227 5.243854522705078 4.260618209838867 3.362905502319336 7.68427848815918 2.67817497253418 C 9.313298225402832 2.352375030517578 11.12795829772949 2.096025466918945 12.88285827636719 1.848125457763672 C 15.11029815673828 1.533475875854492 17.21420860290527 1.236265182495117 18.88296890258789 0.8189048767089844 C 21.05435943603516 0.2758255004882812 21.52110862731934 -0.2474441528320312 21.6209888458252 -0.4472141265869141 Z" stroke="none" fill="#fff"/>
    </g>
  </g>
</svg>
