<svg xmlns="http://www.w3.org/2000/svg" width="35.417" height="35.414" viewBox="0 0 35.417 35.414">
  <path id="Caminho_16" data-name="Caminho 16" d="M30.587-121.035h4.83v3.219h-4.83ZM0-121.035H4.83v3.219H0ZM19.318-132.3H16.1v-4.83h3.219Zm0-4.83M6.311-133.108l3.429,3.445-2.288,2.272L4.023-130.8Zm19.366,3.429,3.41-3.429,2.3,2.3-3.429,3.413Zm-7.97.6a9.657,9.657,0,0,1,9.658,9.658,9.676,9.676,0,0,1-4.828,8.371v2.9a1.609,1.609,0,0,1-1.611,1.608H14.488a1.609,1.609,0,0,1-1.611-1.608v-2.9a9.681,9.681,0,0,1-4.828-8.371,9.657,9.657,0,0,1,9.658-9.658m3.219,24.146v1.611a1.607,1.607,0,0,1-1.608,1.608H16.1a1.609,1.609,0,0,1-1.611-1.608v-1.611Zm-4.828-4.83h3.219v-3.429a6.425,6.425,0,0,0,4.828-6.229,6.438,6.438,0,0,0-6.439-6.438,6.438,6.438,0,0,0-6.439,6.438,6.424,6.424,0,0,0,4.83,6.229Z" transform="translate(0 137.131)" fill="#858280"/>
</svg>
