<svg xmlns="http://www.w3.org/2000/svg" width="84.872" height="84.873" viewBox="0 0 84.872 84.873">
  <g id="layer1" transform="translate(-2.465 -240.182)">
    <g id="g3877" transform="translate(2.465 240.182)">
      <path id="path3833" d="M79.421,41.62A29.688,29.688,0,1,0,22.266,26.394,16.949,16.949,0,0,0,21.3,59.205l2.875,10.505H21.792V72.54H30.28V69.711h-2.4L30.769,59.2a16.761,16.761,0,0,0,5.055-2.47A29.824,29.824,0,0,0,41.6,59.516l7.952,24.34H47.254v2.829h8.487V83.856H53.447L60.461,62.39a16.864,16.864,0,0,0,11.854,12.32l2.744,9.145H72.716v2.829H81.2V83.856H78.861l2.745-9.145a16.955,16.955,0,0,0-2.184-33.09Zm-10.447,13.9a29.582,29.582,0,0,0,5.565-5.251,8.473,8.473,0,1,1-5.565,5.251ZM22.1,35.68c.035.254.069.511.112.764.087.517.189,1.027.3,1.536.1.443.212.88.33,1.315.073.272.146.544.228.813.123.409.258.812.4,1.215.055.159.114.316.172.472a29.6,29.6,0,0,0,5.275,9.015A8.473,8.473,0,0,1,17.55,42.834a8.535,8.535,0,0,1,4.5-7.486c.014.112.032.222.048.332Zm7.2,20.985a1.414,1.414,0,0,0-1.037,1l-2.228,8.105-2.215-8.1a1.413,1.413,0,0,0-1.038-1,14.128,14.128,0,0,1-.894-27.261c-.061.739-.09,1.434-.09,2.112,0,.289.017.573.025.86a11.284,11.284,0,1,0,9.162,20.6,29.3,29.3,0,0,0,2.347,2.033A13.829,13.829,0,0,1,29.3,56.665Zm29.636,1.3L51.5,80.714,44.066,57.964a1.413,1.413,0,0,0-.906-.906,26.954,26.954,0,0,1-6.544-3.184c-.016-.011-.023-.031-.04-.042a27.11,27.11,0,0,1-4.562-3.856c-.4-.422-.788-.853-1.157-1.3-.082-.1-.17-.194-.25-.294q-.683-.845-1.295-1.74c-.057-.083-.111-.169-.167-.252-.385-.578-.751-1.168-1.089-1.773-.024-.042-.049-.083-.073-.126a26.77,26.77,0,0,1-3.293-11.256.016.016,0,0,0,0-.007c-.033-.569-.066-1.139-.066-1.714,0-.73.052-1.445.109-2.16.045-.493.1-1,.178-1.557a26.862,26.862,0,1,1,51.223,14.46c0,.01-.013.017-.017.027a26.67,26.67,0,0,1-4.057,6.47c-.141.169-.283.337-.427.5a27.247,27.247,0,0,1-3.666,3.452l-.064.048a26.846,26.846,0,0,1-6.977,3.894s-.007.006-.011.007c-.358.134-.709.28-1.075.4a1.411,1.411,0,0,0-.906.9Zm21.229,14.2a1.415,1.415,0,0,0-1.036.973L76.96,80.349,74.8,73.133a1.421,1.421,0,0,0-1.036-.973A14.075,14.075,0,0,1,62.839,58.944a29.828,29.828,0,0,0,2.845-1.33c-.02.259-.04.518-.04.779A11.316,11.316,0,1,0,76.96,47.077c-.054,0-.106.006-.16.007a29.472,29.472,0,0,0,1.5-2.758A14.13,14.13,0,0,1,80.161,72.16Z" transform="translate(-9.062 -1.812)" fill="#f05423"/>
      <path id="path3835" d="M57.087,57.2h2.829V54.369H57.087Z" transform="translate(17.883 27.675)" fill="#f05423"/>
      <path id="path3837" d="M40.777,54.369h2.829V57.2H40.777Z" transform="translate(8.732 27.675)" fill="#f05423"/>
      <path id="path3839" d="M24.466,45.307H27.3v2.829H24.466Z" transform="translate(-0.419 22.591)" fill="#f05423"/>
      <path id="path3841" d="M65.09,39.275V20.886a1.412,1.412,0,0,0-.283-.849L56.32,8.721a1.416,1.416,0,0,0-1.132-.566H32.556v.031a1.4,1.4,0,0,0-1.132.535L22.937,20.037a1.412,1.412,0,0,0-.283.849V39.275a1.413,1.413,0,0,0,1.415,1.415H63.675A1.413,1.413,0,0,0,65.09,39.275ZM39.628,37.861H25.483v-16.5l7.073-9.429,7.073,9.429ZM35.385,10.984h19.1l6.365,8.487H41.75Zm7.073,26.876V22.3h19.8v15.56Z" transform="translate(-1.436 1.747)" fill="#f05423"/>
      <circle id="path3934" cx="2.411" cy="2.411" r="2.411" transform="translate(28.735 22.273)" fill="#f05423"/>
      <rect id="rect4777" width="3.909" height="12.243" rx="1.252" transform="translate(29.266 28.806)" fill="#f05423" stroke="rgba(0,0,0,0)" stroke-width="0.265"/>
    </g>
  </g>
</svg>
