<svg xmlns="http://www.w3.org/2000/svg" width="48.354" height="45.833" viewBox="0 0 48.354 45.833">
  <path id="Path_sprout-outline" data-name="Path / sprout-outline" d="M50.254,6.813V2.688l-4.125-.458A35.385,35.385,0,0,0,42.233,2c-9.4,0-16.271,2.75-20.167,7.563A22.894,22.894,0,0,0,10.15,6.583a30.47,30.47,0,0,0-3.9.229L1.9,7.5l.229,3.9C2.358,18.271,5.8,31.333,17.713,31.333h.458v7.792A73.166,73.166,0,0,0,2.129,43.25v4.583H47.963V43.25a73.166,73.166,0,0,0-16.042-4.125V31.792c14.437-.229,18.333-16.5,18.333-24.979M25.046,38.667H22.754V25.833s-.458-7.792-6.875-7.792c0,0,3.437,1.833,4.354,8.479a10.277,10.277,0,0,1-2.521.229c-10.542,0-11-15.354-11-15.354a23.088,23.088,0,0,1,3.438-.229c4.354,0,11.458.917,13.521,7.1C24.817,7.958,36.5,6.583,42.233,6.583a23.088,23.088,0,0,1,3.438.229s0,20.625-14.437,20.625h-1.6c0-4.583,4.583-11.458,4.583-11.458-6.875,2.292-6.875,11.229-6.875,11.229V38.667Z" transform="translate(-1.9 -2)" fill="#f05423"/>
</svg>
