<svg xmlns="http://www.w3.org/2000/svg" width="61.343" height="64.408" viewBox="0 0 61.343 64.408">
  <g id="Grupo_373" data-name="Grupo 373" transform="translate(-982.68 -2526.667)">
    <path id="recycle-variant" d="M14.349,16.247,18.3,18.529,25.554,6l5.134,8.877L24.755,18.3l12.46,3.332,3.355-12.46L34.636,12.6,29.5,3.7a4.537,4.537,0,0,0-6.23-1.666,4.392,4.392,0,0,0-1.529,1.438m-.936,40.368V39.272H6.339l5.112-8.9L17.384,33.8l-3.332-12.46L1.57,24.667,7.5,28.09l-5.134,8.9a4.572,4.572,0,0,0,1.666,6.23,4.8,4.8,0,0,0,2.031.616m35.417-19.4-3.971,2.282,7.257,12.551H34.5V32.426l-9.128,9.128L34.5,50.682V43.836H44.768a4.548,4.548,0,0,0,4.564-4.564,4.456,4.456,0,0,0-.5-2.031Z" transform="translate(981.11 2525.26)" fill="#f05423"/>
    <g id="leaf" transform="matrix(0.985, 0.174, -0.174, 0.985, 1008.916, 2551.305)" fill="#f05423">
      <path d="M 6.697151184082031 33.48388671875 L 6.250710964202881 33.32798385620117 L 2.98241114616394 32.18666458129883 L 2.487871170043945 32.01396560668945 L 2.683381080627441 31.52799606323242 C 2.835721015930176 31.14934539794922 2.988121032714844 30.76760482788086 3.141481161117554 30.38342475891113 C 4.921300888061523 25.92510604858398 6.761701107025146 21.31500434875488 10.09838104248047 17.27382469177246 C 12.64578533172607 14.18855857849121 15.77978229522705 11.83543300628662 19.5877742767334 10.16386890411377 C 18.68364143371582 10.416090965271 17.72498893737793 10.73086452484131 16.74173164367676 11.12356472015381 C 10.23040103912354 13.72409534454346 5.774540901184082 18.32810592651367 3.497931003570557 24.80768585205078 L 3.234531164169312 25.55737495422363 L 2.672651052474976 24.9954948425293 C 2.543101072311401 24.8659553527832 -0.4999988973140717 21.78118515014648 -0.4999988973140717 18.15722465515137 C -0.4999988973140717 17.19066429138184 -0.2484088987112045 15.99979496002197 0.2084110975265503 14.80397510528564 C 0.7214611172676086 13.46100521087646 1.484941124916077 12.12210559844971 2.416301012039185 10.93203544616699 C 4.060350894927979 8.831295013427734 7.058761119842529 6.119405269622803 12.00676155090332 5.129805088043213 C 14.48006153106689 4.63514518737793 17.25260162353516 4.243484973907471 19.93386077880859 3.864725112915039 C 23.38302040100098 3.377485275268555 26.6408805847168 2.917265176773071 29.25688171386719 2.26299524307251 C 32.05459976196289 1.563265204429626 33.65122222900391 0.7498951554298401 34.13796997070312 -0.2236048430204391 L 35.07757186889648 0.0868951678276062 C 35.06447982788086 0.1611051708459854 33.72558975219727 7.592685222625732 30.06078147888184 14.92231559753418 C 27.89792060852051 19.2480354309082 25.35805130004883 22.69954490661621 22.51172065734863 25.18095588684082 C 18.9218807220459 28.31056594848633 14.8386812210083 29.89741516113281 10.37556076049805 29.89741516113281 C 9.753812789916992 29.89741516113281 8.98563289642334 29.70607948303223 8.342053413391113 29.50149726867676 L 6.877681255340576 33.04681396484375 L 6.697151184082031 33.48388671875 Z" stroke="none"/>
      <path d="M 34.58518218994141 -3.814697265625e-06 C 32.85592269897461 3.458515167236328 20.7511100769043 3.890834808349609 12.10482025146484 5.620094299316406 C 3.458520889282227 7.349355697631836 0 14.69870567321777 0 18.1572265625 C 0 21.61574554443359 3.026201248168945 24.64194488525391 3.026201248168945 24.64194488525391 C 8.64630126953125 8.646295547485352 25.93889236450195 8.646295547485352 25.93889236450195 8.646295547485352 C 10.37556076049805 12.10481452941895 6.744112014770508 22.77434539794922 3.147251129150391 31.71461486816406 L 6.415550231933594 32.85592651367188 L 8.058351516723633 28.87862586975098 C 8.888391494750977 29.17260551452637 9.753021240234375 29.39741516113281 10.37556076049805 29.39741516113281 C 29.39740180969238 29.39741516113281 34.58518218994141 -3.814697265625e-06 34.58518218994141 -3.814697265625e-06 M 33.69075012207031 -0.4472160339355469 L 35.56996154785156 0.1737861633300781 C 35.51597213745117 0.4797134399414062 34.20521926879883 7.751445770263672 30.50799179077148 15.14591598510742 C 28.31581115722656 19.53027534484863 25.73602104187012 23.03334426879883 22.84029006958008 25.55784606933594 C 19.15673065185547 28.76914596557617 14.96299171447754 30.39741516113281 10.37556076049805 30.39741516113281 C 9.896673202514648 30.39741516113281 9.31242561340332 30.30118560791016 8.631437301635742 30.11059379577637 L 6.978761672973633 34.11181640625 L 1.828479766845703 32.31331634521484 L 2.219520568847656 31.34136581420898 C 2.371692657470703 30.963134765625 2.523921966552734 30.58180618286133 2.677120208740234 30.19804573059082 C 4.38762092590332 25.91335487365723 6.32634162902832 21.05697631835938 9.712821960449219 16.95547485351562 C 10.81776428222656 15.61723327636719 12.03056907653809 14.41409301757812 13.35762023925781 13.34244918823242 C 8.902139663696289 16.00139808654785 5.752317428588867 19.89972114562988 3.969661712646484 24.97343444824219 L 3.442852020263672 26.47280502319336 L 2.319091796875 25.34905624389648 C 2.183570861816406 25.21352577209473 -1 21.98593521118164 -1 18.1572265625 C -1 16.38244438171387 -0.2059783935546875 13.47142601013184 2.022541046142578 10.62387466430664 C 3.718660354614258 8.456624984741211 6.810630798339844 5.659124374389648 11.90870094299316 4.639514923095703 C 14.3959903717041 4.142055511474609 17.17571067810059 3.749385833740234 19.86391067504883 3.369646072387695 C 23.29972076416016 2.884284973144531 26.54498100280762 2.42585563659668 29.13556098937988 1.777935028076172 C 32.38759231567383 0.9645843505859375 33.40767288208008 0.1189537048339844 33.69075012207031 -0.4472160339355469 Z" stroke="none" fill="#fff"/>
    </g>
  </g>
</svg>
