<svg xmlns="http://www.w3.org/2000/svg" width="61" height="90.23" viewBox="0 0 61 90.23">
  <g id="Grupo_134" data-name="Grupo 134" transform="translate(-387.169 -7095.584)">
    <g id="Grupo_131" data-name="Grupo 131" transform="translate(387.169 7095.584)">
      <path id="Caminho_98" data-name="Caminho 98" d="M23.47,17.265l-1.14-.641h1.082c2.535-6,3.715-10.524,3.715-14.235a18.384,18.384,0,0,0-36.767-.1c0,3.946,1.315,8.937,3.8,14.437l.131.287-.275.152A30.467,30.467,0,1,0,39.291,43.819,30.891,30.891,0,0,0,23.47,17.265Zm9.378,13.923a26.784,26.784,0,0,1,3.009,10.687l.027.37H20.241l-.008-.335a74.907,74.907,0,0,0-.953-10.5l-.069-.4H32.75Zm-2.52-3.879.422.549H18.7l-.077-.233a3.132,3.132,0,0,1-.1-.366,1.118,1.118,0,0,0-.077-.26l-.083-.164.092-.16c1.147-2.01,2.214-4.148,3.247-6.216l.162-.321.312.175A26.61,26.61,0,0,1,30.328,27.309ZM-5.917,2.293a14.592,14.592,0,0,1,14.4-14.535h0l.212,0A14.641,14.641,0,0,1,23.31,2.389c0,10-10.454,26.606-13.659,31.455a1.094,1.094,0,0,1-.907.585,1.1,1.1,0,0,1-.907-.583C1.56,24.2-5.917,10.9-5.917,2.293ZM.3,42.245l.01-.352a76.719,76.719,0,0,1,.961-10.212l.146-.9.506.81c.93,1.492,1.894,3.034,2.745,4.264a4.845,4.845,0,0,0,8.054.006c.414-.6.828-1.263,1.265-1.967.475-.764.966-1.553,1.515-2.354l.485-.7.135.843a76.687,76.687,0,0,1,.961,10.212l.01.352Zm16.793,3.247-.008.352a81.675,81.675,0,0,1-.961,10.593l-.046.289H1.421l-.052-.279A67.087,67.087,0,0,1,.405,45.842l-.01-.35ZM-12.931,27.207A29.5,29.5,0,0,1-4.791,20.22l.316-.187.169.337c1.032,2.069,2.1,4.206,3.242,6.208l.075.133-.048.146c-.035.108-.056.2-.077.3a1.688,1.688,0,0,1-.133.42l-.094.189H-13.372Zm-5.534,14.668a28.293,28.293,0,0,1,3.005-10.681l.1-.185h13.45l-.069.4a75.223,75.223,0,0,0-.953,10.5l-.01.333H-18.494Zm3.009,14.672A26.784,26.784,0,0,1-18.465,45.86l-.029-.37H-2.848l.008.335a74.6,74.6,0,0,0,.953,10.5l.069.4h-13.54ZM2.008,70.239a26.723,26.723,0,0,1-14.943-9.813l-.418-.549H-1.278l.06.268a32.223,32.223,0,0,0,3.6,9.582l.437.708Zm6.689.872c-2.333,0-4.845-4.142-6.558-10.807l-.108-.427H15.364l-.11.427C13.541,66.969,11.029,71.111,8.7,71.111ZM30.234,60.522a27.058,27.058,0,0,1-14.94,9.811l-.818.208.443-.718a32.178,32.178,0,0,0,3.6-9.582l.06-.268H30.648ZM35.857,45.86A28.306,28.306,0,0,1,32.85,56.541l-.1.185H19.21l.067-.4a74.857,74.857,0,0,0,.955-10.5l.008-.335,15.644,0Z" transform="translate(21.709 15.969)" fill="#fff"/>
    </g>
    <g id="Grupo_133" data-name="Grupo 133" transform="translate(408.996 7105.294)">
      <path id="Caminho_100" data-name="Caminho 100" d="M8.912,4.457A8.588,8.588,0,0,0,.333-4.122a8.579,8.579,0,0,0,0,17.157A8.591,8.591,0,0,0,8.912,4.457Zm-13.375,0a4.8,4.8,0,0,1,4.8-4.8,4.8,4.8,0,0,1,0,9.594A4.8,4.8,0,0,1-4.464,4.457Z" transform="translate(8.243 4.122)" fill="#fff"/>
    </g>
  </g>
</svg>
