<svg xmlns="http://www.w3.org/2000/svg" width="41.991" height="47.194" viewBox="0 0 41.991 47.194">
  <path id="Path_head-heart" data-name="Path / head-heart" d="M27.622,3A18.36,18.36,0,0,0,9.269,20.462L4.235,27.1a1.357,1.357,0,0,0,1.1,2.124H9.269v7.866a5.226,5.226,0,0,0,5.244,5.244h2.622v7.866H35.488V37.9A18.33,18.33,0,0,0,27.622,3M38.11,18.286c0,4.038-3.566,7.263-8.967,12.166l-1.521,1.39L26.1,30.451c-5.4-4.9-8.967-8.128-8.967-12.166A5.747,5.747,0,0,1,22.8,12.518h.1a6.277,6.277,0,0,1,4.719,2.176,6.277,6.277,0,0,1,4.719-2.176,5.713,5.713,0,0,1,5.768,5.663Z" transform="translate(-3.985 -3)" fill="#f05423"/>
</svg>
