<svg xmlns="http://www.w3.org/2000/svg" width="33.394" height="33.394" viewBox="0 0 33.394 33.394">
  <path id="Caminho_14" data-name="Caminho 14" d="M16.9,16.362a3.351,3.351,0,0,0-3.171-2.321H12.062V9.032a1.669,1.669,0,0,0-1.671-1.668H.373V4.024H3.713A1.672,1.672,0,0,0,5.383,2.353V-.986H8.723a3.339,3.339,0,0,0,3.339-3.339V-5.01A13.327,13.327,0,0,1,16.9,16.362M5.383,20.6A13.342,13.342,0,0,1-6.3,7.363a13.426,13.426,0,0,1,.35-2.99l8,8v1.671a3.339,3.339,0,0,0,3.339,3.339M7.052-9.335a16.7,16.7,0,1,0,16.7,16.7,16.7,16.7,0,0,0-16.7-16.7" transform="translate(9.644 9.335)" fill="#f05423"/>
</svg>
