<svg xmlns="http://www.w3.org/2000/svg" width="33.554" height="32.898" viewBox="0 0 33.554 32.898">
  <path id="Caminho_156" data-name="Caminho 156" d="M14.422,2.06A3.273,3.273,0,1,1,17.7,5.333,3.283,3.283,0,0,1,14.422,2.06m6.546,29.46V21.7h4.093L20.968,9.262A3.344,3.344,0,0,0,17.86,6.971H17.7a3.344,3.344,0,0,0-3.108,2.291l-1.473,4.255A5.594,5.594,0,0,1,16.06,18.59v13.1h4.908M8.694,14.335a2.517,2.517,0,0,0,2.455-2.455A2.516,2.516,0,0,0,8.694,9.427a2.516,2.516,0,0,0-2.455,2.453,2.517,2.517,0,0,0,2.455,2.455m-11.457-9A3.283,3.283,0,0,0,.51,2.06,3.283,3.283,0,0,0-2.763-1.213,3.283,3.283,0,0,0-6.037,2.06,3.283,3.283,0,0,0-2.763,5.333M.51,31.52V20.063H2.965V10.244A3.283,3.283,0,0,0-.308,6.971H-5.219a3.283,3.283,0,0,0-3.273,3.273v9.819h2.455V31.52Zm10.64,0V24.974h1.635V18.428a2.515,2.515,0,0,0-2.453-2.455H7.058A2.515,2.515,0,0,0,4.6,18.428v6.546H6.238V31.52Z" transform="translate(8.492 1.213)" fill="#f05423"/>
</svg>
