<svg xmlns="http://www.w3.org/2000/svg" width="77.472" height="56.059" viewBox="0 0 77.472 56.059">
  <g id="layer1" transform="translate(-0.921 -285.967)">
    <g id="g3744" transform="translate(0.921 285.967)">
      <path id="path3730" d="M100.441,319.985a26.68,26.68,0,0,1-5.052-2.139,7.146,7.146,0,0,0,2.223-.522c4.783-2.071,5.861-9.178,5.911-9.481h0a1.684,1.684,0,0,0-1.819-1.836c-2.038.253-4.513-.219-5.776-6.13a.616.616,0,0,0-.085-.186,15.427,15.427,0,0,0-5.759-10.879l-.1-.084a10.444,10.444,0,0,0-6.147-2.055c-6.231,0-11.367,5.793-12.074,13.22-1.246,5.827-3.368,6.382-5.574,6.113a1.608,1.608,0,0,0-1.8,1.836c0,.3,1.128,7.41,5.894,9.481h0a6.622,6.622,0,0,0,.926.3,24.091,24.091,0,0,1-5.186,2.307,6.273,6.273,0,0,0-1.145-.438l-5.052-1.684-1.583-2.223v-2.122a12.519,12.519,0,0,0,2.139-3.25,5.052,5.052,0,0,0,2.88-4.126,6.38,6.38,0,0,0-.286-3.722,15.65,15.65,0,0,0,.387-2.509c.118-2.358.2-10.256-3.6-12.664h0a4.782,4.782,0,0,0-4.5-.253,10.258,10.258,0,0,0-9.633-1.162,11.166,11.166,0,0,0-7.107,7.949,22.212,22.212,0,0,0,.219,8.016,5.642,5.642,0,0,0-.657,4.345,7.387,7.387,0,0,0,1.145,2.795,3.166,3.166,0,0,0,2,1.382,12.8,12.8,0,0,0,2.139,3.25v2.071l-1.617,2.223L36.7,319.5h0a13.657,13.657,0,0,0-9.094,11.283,1.261,1.261,0,0,0,0,.252v8.42a1.683,1.683,0,0,0,1.684,1.684h74.1a1.683,1.683,0,0,0,1.684-1.684V326.317a6.735,6.735,0,0,0-4.631-6.331ZM84.746,298.312a16.842,16.842,0,0,0,7.882,5.574c-.809,5.389-4.429,9.481-8.79,9.481h0a7.2,7.2,0,0,1-3.94-1.212,12.194,12.194,0,0,1-4.934-9.145A19.651,19.651,0,0,0,84.746,298.312ZM79.475,315.59a9.847,9.847,0,0,0,8.757-.033c.589.741,1.263,1.465,1.684,1.92a18.981,18.981,0,0,0,1.415,1.364h0a13.859,13.859,0,0,1-9.246,3.183,13.135,13.135,0,0,1-7.208-2.964,38.156,38.156,0,0,0,4.6-3.469Zm20.545-6.382c-.572,1.9-1.684,4.361-3.57,5.17h0a5.759,5.759,0,0,1-5.052-.926,15.154,15.154,0,0,0,4.058-6.938,6.872,6.872,0,0,0,4.564,2.695Zm-7.191-8.673a14.758,14.758,0,0,1-5.692-4.5,30.33,30.33,0,0,0,2.577-3.368,13.17,13.17,0,0,1,3.031,7.865Zm-8.908-10.626a7.153,7.153,0,0,1,3.233.791c-1.583,2.459-5.641,7.764-12.041,9.06.59-5.574,4.278-9.851,8.723-9.851Zm-15.9,19.317a6.736,6.736,0,0,0,4.4-2.543,15.274,15.274,0,0,0,4.025,6.854,5.609,5.609,0,0,1-4.917.842C69.708,313.57,68.579,311.111,68.024,309.225Zm-2.779,13.994a10.693,10.693,0,0,1,5.389,7.966v6.736H55.7l-1.179-7.578.219-1.4h0a1.683,1.683,0,0,0,.96.337h.354a1.682,1.682,0,0,0,1.162-1.027l2.543-7.022,4.143,1.381a7.806,7.806,0,0,1,1.348.606Zm-20.208-4.378,3.5,4.075-2.021,1.954L44.565,319.5Zm2.021-2.593h0a9.143,9.143,0,0,0,7.443,0l-3.738,4.345Zm7.966,8.622-2.038-1.954,3.52-4.075.471.657ZM41.669,294.305a8.049,8.049,0,0,1,5.052-5.507,7.191,7.191,0,0,1,7.326,1.3,1.685,1.685,0,0,0,1.684.185l.253-.135c1.3-.674,1.835-.337,2.021-.219,1.28.825,2.122,4.159,2.122,8.235h0a6.736,6.736,0,0,1-4.833-4.243,1.684,1.684,0,0,0-2.947-.2c-1.482,2.863-7.511,3.486-10.879,3.486a14.08,14.08,0,0,1,.2-2.9Zm.842,12.5h0a1.1,1.1,0,0,0-.32,0,1.552,1.552,0,0,0-.488,0,4.351,4.351,0,0,1-.471-1.347,3.711,3.711,0,0,1,0-1.684,1.683,1.683,0,0,0,.808-1.684c-.1-.522-.2-1.061-.286-1.6,2.98,0,8.42-.455,11.789-3.115a9.177,9.177,0,0,0,6.315,3.957,3.633,3.633,0,0,1-.2.876,1.551,1.551,0,0,0,.337,1.415,3.367,3.367,0,0,1,0,1.819,3.819,3.819,0,0,1-.555,1.465,1.881,1.881,0,0,0-.741,0,1.683,1.683,0,0,0-1.01,1.01,7.73,7.73,0,0,1-6.972,5.692,7.763,7.763,0,0,1-7.04-5.86,1.684,1.684,0,0,0-1.162-.943ZM30.841,331.17a10.425,10.425,0,0,1,6.871-8.606l4.075-1.364,2.542,7.073a1.686,1.686,0,0,0,1.162,1.028h.354a1.574,1.574,0,0,0,.909-.3l.186,1.5-1.061,7.443H30.841Zm18.289,6.736,1.044-7.191a1.9,1.9,0,0,0,0-.438l-.522-4.025,1.111-1.077,1.128,1.094-.589,3.806a1.187,1.187,0,0,0,0,.488l1.128,7.343Zm52.711,0H73.935v-7.124a14.08,14.08,0,0,0-4.564-8.639,26.087,26.087,0,0,0,2.728-1.28,16.472,16.472,0,0,0,9.785,4.378h1.01a17.784,17.784,0,0,0,11.216-4.48,29.921,29.921,0,0,0,5.339,2.257,3.519,3.519,0,0,1,2.408,3.368Z" transform="translate(-27.6 -285.078)" fill="#f05423"/>
    </g>
  </g>
</svg>
