<svg xmlns="http://www.w3.org/2000/svg" width="32.195" height="32.195" viewBox="0 0 32.195 32.195">
  <path id="Caminho_14" data-name="Caminho 14" d="M15.951,15.44A3.231,3.231,0,0,0,12.894,13.2H11.283V8.372A1.61,1.61,0,0,0,9.672,6.764H.014V3.545H3.233A1.612,1.612,0,0,0,4.844,1.934V-1.286H8.063A3.219,3.219,0,0,0,11.283-4.5v-.661A12.849,12.849,0,0,1,15.951,15.44M4.844,19.529A12.863,12.863,0,0,1-6.425,6.764a12.944,12.944,0,0,1,.337-2.882l7.712,7.71V13.2a3.219,3.219,0,0,0,3.219,3.219M6.452-9.335a16.1,16.1,0,1,0,16.1,16.1,16.1,16.1,0,0,0-16.1-16.1" transform="translate(9.644 9.335)" fill="#858280"/>
</svg>
