<svg xmlns="http://www.w3.org/2000/svg" width="36.224" height="32.441" viewBox="0 0 36.224 32.441">
  <g id="Grupo_126" data-name="Grupo 126" transform="translate(-1057.358 -2264.367)">
    <path id="bicycle-basket" d="M17.719,18.127,21.342,9.6l-1.63-3.336H15.848V4h5.283l1.1,2.264h10.6l-1.509,5.283H24.813l1.011,2.068a7.45,7.45,0,0,1,2.853-.558,7.571,7.571,0,1,1-4.8,1.736L22.64,12.3l-4.151,9.811H14.942a7.436,7.436,0,1,1,.151-2.264h.875l-3.441-8.3H11.32a1.132,1.132,0,1,1,0-2.264h4.151a1.132,1.132,0,1,1,0,2.264h-.423l2.671,6.581M7.547,15.32a5.283,5.283,0,1,0,5.071,6.792H6.037V19.848h6.747A5.3,5.3,0,0,0,7.547,15.32m21.13,0a5.4,5.4,0,0,0-1.856.332l2.913,5.977-2.038,1L24.9,16.9a5.283,5.283,0,1,0,3.773-1.585Z" transform="translate(1057.358 2260.367)" fill="#f05423"/>
    <g id="Grupo_27" data-name="Grupo 27" transform="translate(1071.508 2279.868)">
      <g id="lightning-bolt" transform="translate(0.527 0) rotate(2)" fill="#f05423" stroke-linejoin="round">
        <path d="M 4.178757667541504 15.44560623168945 L 2.761007785797119 15.10411548614502 L 2.761007785797119 10.3617057800293 L -2.278289684909396e-06 10.3617057800293 L -1.225932240486145 10.3617057800293 L -0.6677522659301758 9.27021598815918 L 4.247657775878906 -0.3414941728115082 L 5.665407657623291 -4.164276106166653e-06 L 5.665407657623291 4.742405891418457 L 8.426417350769043 4.742405891418457 L 9.652347564697266 4.742405891418457 L 9.094167709350586 5.833895683288574 L 4.178757667541504 15.44560623168945 Z" stroke="none"/>
        <path d="M 3.511007785797119 15.10411548614502 L 8.426417350769043 5.492405891418457 L 4.915407657623291 5.492405891418457 L 4.915407657623291 -4.164276106166653e-06 L -2.278289684909396e-06 9.611705780029297 L 3.511007785797119 9.611705780029297 L 3.511007785797119 15.10411548614502 M 3.511333703994751 16.60425758361816 C 3.394830226898193 16.60425758361816 3.276973962783813 16.59063911437988 3.159757614135742 16.56240653991699 C 2.485907793045044 16.40010643005371 2.011007785797119 15.7972354888916 2.011007785797119 15.10411548614502 L 2.011007785797119 11.1117057800293 L -2.278289684909396e-06 11.1117057800293 C -0.5222922563552856 11.1117057800293 -1.006982326507568 10.8400354385376 -1.279542326927185 10.39450550079346 C -1.552112221717834 9.948975563049316 -1.573302268981934 9.393745422363281 -1.33550226688385 8.928735733032227 L 3.579907655715942 -0.6829741597175598 C 3.895497798919678 -1.300084590911865 4.592806339263916 -1.620603680610657 5.266657829284668 -1.458294153213501 C 5.940507888793945 -1.295994162559509 6.415407657623291 -0.6931241750717163 6.415407657623291 -4.164276106166653e-06 L 6.415407657623291 3.992405891418457 L 8.426417350769043 3.992405891418457 C 8.948707580566406 3.992405891418457 9.43339729309082 4.264075756072998 9.705957412719727 4.709605693817139 C 9.978528022766113 5.155135631561279 9.999717712402344 5.710365772247314 9.761918067932129 6.175375938415527 L 4.846507549285889 15.78708553314209 C 4.585814476013184 16.29685020446777 4.064581871032715 16.60425758361816 3.511333703994751 16.60425758361816 Z" stroke="none" fill="#fff"/>
      </g>
    </g>
  </g>
</svg>
