<svg xmlns="http://www.w3.org/2000/svg" width="83.091" height="69.52" viewBox="0 0 83.091 69.52">
  <g id="noun-united-nations-3104698" transform="translate(-75.213 -58.178)">
    <path id="Caminho_216" data-name="Caminho 216" d="M397.93,246.61H398v.249h-.068Z" transform="translate(-273.609 -158.904)" fill="#f05423" fill-rule="evenodd"/>
    <path id="Caminho_217" data-name="Caminho 217" d="M397.93,247.27h.039v.3h-.039Z" transform="translate(-273.609 -159.461)" fill="#f05423" fill-rule="evenodd"/>
    <path id="Caminho_218" data-name="Caminho 218" d="M95.735,67.917a1.812,1.812,0,0,1,.414-.518c.829-3.626,5.595-5.284,8.392-7.356-2.072,2.694-4.869,6.838-8.288,7.459a1.813,1.813,0,0,0-.518.414Zm25.695.207a2.081,2.081,0,0,1,.829.414,3.041,3.041,0,0,0,1.554-.1,2.414,2.414,0,0,0-1.451-.414v-.1a17.442,17.442,0,0,1,3.419-.311V71.13c-.414.518-.829.414-1.036.932a1.431,1.431,0,0,1-1.761-.725c-.414-.414-.518-.622-.829-.414-.414,0-.622-.414-.932-1.14-.1-.725.208-.518-.414-1.451l.622-.208Zm-.622,1.243c.207.1-.1.518,0,.725a.861.861,0,0,1,.207.829c-1.554-.622-3.73,1.347-2.8,1.865,1.243-.414,1.347.829,1.036.932-.932.622-1.865,1.554-1.554,2.8-.1.725-.1,1.14.1,1.347.518,0,1.036-.1,1.243.414a2.261,2.261,0,0,1-.518.414l-5.7-5.8a15.527,15.527,0,0,1,1.347-1.14c.414.1.829.622,1.14.829a2.618,2.618,0,0,0,1.243-1.347c.1-1.036,1.036-1.243,1.761-1.658.1-.207.207-.311.207-.414a15.138,15.138,0,0,1,1.969-.725.957.957,0,0,1,.311.932Zm-5.7-.932c.1-.208-.1-.208-.311-.1-.207.208-.414.208-.518.311C113.452,69.161,115.006,68.54,115.109,68.436Zm1.14-.414c.414-.1.311-.311,0-.1-.414,0-.414.1-.622.311-.1.1-.311.311-.1.208a1.67,1.67,0,0,0,.725-.414Zm16.991,4.973A2.713,2.713,0,0,1,135,72.476a5.559,5.559,0,0,1,1.865,1.347c-.208.932-.518.622-.622,1.036-.1.208.1.622.208.829l1.554-1.554-.829-.932a.921.921,0,0,0,0-.829,2.283,2.283,0,0,1-1.14-1.554h.414A18.247,18.247,0,0,0,126.2,67.607v2.072a.866.866,0,0,1,.725-.311,3.3,3.3,0,0,1,1.243,1.14s.518.622,1.554,1.968c.414,1.036,1.036,1.451,1.761,1.14.311-.207.725-.1,1.036.311,0,0,.208.414.622,1.14,0,.1.414.1,1.347-.1v-.829a2.918,2.918,0,0,1-.829-.1c-.1,0-.208-.414-.414-1.036ZM100.812,88.017c-.1.414-.207.622.1.932-.1.414-.207.414-.414.725-.208.1.207.518-.208,1.14a4.537,4.537,0,0,1-1.036-.208c0-.1-.311-.414-.311-.518.1-.311-.1-.518-.1-.829a.624.624,0,0,1,.414-.1c.622-.414.829-1.14,1.451-1.243l.1.1ZM137.8,67.193a3.074,3.074,0,0,1,2.072-1.347c.207-.1,0-.725.414-.932,1.14,0,3.108.829,2.072,2.175-.725.207-.518.725-1.036.829a1.018,1.018,0,0,1-.829-.311c-1.036-.414-2.072.311-2.694-.414ZM116.146,78.485l.622-.414.414,2.176a6.675,6.675,0,0,1,.829-.932c0-.311-.1-.208.311-.311l-5.8-5.8c-.311.414-.725.725-1.036,1.14a1.324,1.324,0,0,0,.725-.518s-.207.311-.518.725c-.311.725-.829.622-1.347,1.968-.208,1.036.311,1.658-1.347,1.761a18.445,18.445,0,0,0-1.865,7.978h8.185a10.953,10.953,0,0,1,.829-4.144,21.071,21.071,0,0,0,0-3.626Zm1.14,2.383c0,.208.1.829.1,1.451h-.829a9.919,9.919,0,0,0-.829,3.937h4.352a2.937,2.937,0,0,0-1.036-.932c-.414-.311,0-1.554,1.554-.414.518-1.14.725-2.28-.932-2.072-1.347-.311-1.658-.932-.932-2.072-.414-.311-.725-.518-.725-.932-.1.207-.518.725-.725,1.036Zm-7.149-5.387s-.207-.207-.725.208c0,.1-.311.208-.932.1a2.215,2.215,0,0,0-.932,1.865,4.27,4.27,0,0,1-.622,1.036c-.1.1-.414.932-.622,1.347-.1.1-.1.207.1.1.725-.622.622-1.865,2.072-1.865a18.388,18.388,0,0,0-1.761,7.978h-8.6a28.6,28.6,0,0,1,1.347-8.5c.311,0,.622.1,1.036.1a7.346,7.346,0,0,0,1.658,2.59,1.088,1.088,0,0,0,.932-.518c.311-.622.622-.518.725-1.243,0-.725.518-.622,1.036-.725a4.05,4.05,0,0,1,1.243-1.554c.622-.518-.414-.932-.829-.932.725-.725,1.658-2.28,2.8-1.761,0,1.554,1.347.725,1.243-.1a8.122,8.122,0,0,1,.932-2.176h.518l1.451,1.451a25.17,25.17,0,0,0-2.072,2.59Zm14.194,9.635.311.208a3.671,3.671,0,0,0-.414.932h-1.243C123.294,85.531,123.4,85.842,124.33,85.116Zm-1.451,1.554h1.347a2.082,2.082,0,0,0,.414.829l-1.554,1.451h-.1A14.82,14.82,0,0,0,120.7,90.5c-1.036.311-1.036-.622-1.554-.829.518.725.932,1.451,1.347,1.969l-1.968,1.865a9.724,9.724,0,0,1-2.8-6.838h4.663c-.1-.1.414.518.311,1.036a1.551,1.551,0,0,0,1.554.518c.208-1.347.518-1.14.622-1.554Zm1.658-3a13.232,13.232,0,0,1,1.243-.725V84.7a2.081,2.081,0,0,0-.829.414l-.518-.518s.1-.725.1-.932Zm2.9-.932c.725.208,1.243.311,1.347.1a6.65,6.65,0,0,1,.208-1.036.913.913,0,0,1,.829-.208v.725l-2.8,2.8a2.077,2.077,0,0,0-.829-.414V82.837c.208-.1.932-.311,1.243-.1Zm9.428-5.906c.1-.414-.1-.311-.207-.414,0-.1.1-.1-.1-.311l1.554-1.451a5.791,5.791,0,0,0-.311,2.383c-.518.208-.932.414-.932.518A3.508,3.508,0,0,1,137.8,79a4.848,4.848,0,0,0,.622,1.036,1.256,1.256,0,0,0,.518-.1,16.74,16.74,0,0,0,.622,2.9c.1.622-.311,1.554-.1,2.383.829,1.14.208.725,1.554,1.036h-4.352a1.766,1.766,0,0,0-.1-.725A2.626,2.626,0,0,0,138.42,84.5a1.555,1.555,0,0,0-1.554-1.14,1.379,1.379,0,0,1-.518-1.658c.518-.311.829-.518.829-.518l-.311-.622a.626.626,0,0,0,.311-.622c-.725-.518-1.968-.622-1.761-.208-.208.725-1.14,0-1.347-.725a1.774,1.774,0,0,1,1.243-.622c.207.311.414.311.725.311a3.189,3.189,0,0,0-.622-1.451l.622-.518c.207,0,.311.207.829.1Zm-1.658,0v.1l-.1-.1Zm-.518,7.149c.1-1.554-2.176-3.523-3.212-1.761,0,.1.1.207.414.518a4.876,4.876,0,0,1-.932,1.243c-.311.414-.725.208-1.14-.622v-.518l-2.486,2.59a1.981,1.981,0,0,1,.311.829h8.6a2.87,2.87,0,0,0-.1-.932,4.43,4.43,0,0,1-1.451-1.347ZM121.636,67.712a.662.662,0,0,0-.622,0c-.1.1-.1,0-.414,0-1.14-.518-1.14-.208-2.383.1a12.9,12.9,0,0,0-1.658.414,6.386,6.386,0,0,0,1.865-.208c.1,0,1.243-.1,1.243-.1.311.1.311.208.518.208a13.933,13.933,0,0,0-3.108,1.243,2.917,2.917,0,0,0-2.383.932c-.518.829-1.347.829-2.072,1.554.1.208.208.414.311.414l-.414.414-1.14-1.14h.1c0-.932-.1-1.451-.1-1.761a1.312,1.312,0,0,1-1.036-.725c.622-1.243,1.243-1.969,1.968-1.969a3.9,3.9,0,0,0,.725-1.865c.1-1.761-1.451-1.347-1.761-.518-.414.932-1.243,1.036-2.176.829-.725.725-1.451.932-2.072,1.554l-.518-.518a27.433,27.433,0,0,1,19.271-7.978v8.6a18.177,18.177,0,0,0-4.144.518ZM106.717,67.4a9.132,9.132,0,0,0-.622,1.036c-1.14,1.761-2.28,3.315-4.144,4.041a24.913,24.913,0,0,1,4.248-5.595Zm1.761,3.315c-.208,0-.311,0-.311.208-.1.1-.1.1-.311.1.1.1,0,0-.1.1-.208,0-.208-.1-.311-.208h-.208c.1-.208.208,0,.311-.208h.414c.311-.1.207-.208.414-.1Zm19.685,21.446c.1.414-.829.829-.622,1.658a2.523,2.523,0,0,1,.932.725c.622.829.932.414,1.14,0,.1-.518-.414-2.072-.1-2.383s.518-.207,1.036-.1c.414.207.725.1.829.414.207.208,0,.932.414,1.243a.988.988,0,0,0,.518.829,4.8,4.8,0,0,0,.725-.725l-4.352-4.352-.518-.1c-.414-.207-.725-.414-.829-.725a7.1,7.1,0,0,0-.311-.829c-.311.1-.518.311-.829.311v1.554a.944.944,0,0,1,.518.311V90.4h.311c.311.932,1.243,1.14,2.072,1.243-.622.1-.622.311-.932.518Zm4.248,2.8a2.214,2.214,0,0,1,0,.829c-.311.1-.414.518-.725.622l-.725,1.554c.311.622.207,1.658.829,1.865a9.673,9.673,0,0,0,1.243.932c-.518-.1-.622-.208-1.243-.311-.311-.208-.414-.518-.829-.725a5.69,5.69,0,0,0-.829-1.036,1.819,1.819,0,0,1-1.243.622c-.725-.518-1.554-.518-1.968.311,0,1.243,1.036,1.761,1.968,1.968.208,0,.311-.414.725-.518.208.1.518,0,.829.1.1.1,0,.518.1.725.518.622,1.036.207,1.347.414.311,0,.622-.1.829-.1-.311.208-.622.1-.932.414a6.5,6.5,0,0,0-1.968-.311,1.251,1.251,0,0,0-.829.518c-.414,0-.414-.1-.829-.207a4.154,4.154,0,0,1-1.969-.311v2.9a19.134,19.134,0,0,0,6.838-1.347c-.1-.932-.1-1.761.208-1.865,1.968-.1,2.59-1.243,3.212-1.554.622,0,.932-.414,1.969-.207a2.837,2.837,0,0,1,.414-.518l-5.491-5.595c-.311.311-.622.518-.932.829ZM125.781,102a.478.478,0,0,1-.311-.518c-.622-.1-1.036-1.554-1.243-2.072-.622,0-.207,2.28-.311,1.658a14.043,14.043,0,0,1-.414-2.8c-.1,0-.932-.1-1.036-1.554v-.208a10.848,10.848,0,0,1-3.937-2.383l-5.8,5.7a18.672,18.672,0,0,0,13.054,5.387V102ZM122.465,96.1a.97.97,0,0,1,.932-.518c.311-.1.208-.311,0-.622-1.036-.1-1.243-.725-.622-2.072,0-1.14-.829-.311-1.554-.622-.1,0-.311-.208-.518-.311l-1.865,1.865a10.245,10.245,0,0,0,3.626,2.28Zm1.036-6.941a11.99,11.99,0,0,1,1.14.725,3.01,3.01,0,0,0,1.14-.311V88.121a1.978,1.978,0,0,1-.829-.311L123.5,89.157Zm3.315-1.969c.1-.1.208-.1.311-.207a.935.935,0,0,0,.1-.518,1.284,1.284,0,0,0-1.243-1.347,1.371,1.371,0,0,0-1.347,1.347,1.279,1.279,0,0,0,.414.829,1.01,1.01,0,0,0,.932.414,1.174,1.174,0,0,0,.829-.311.144.144,0,0,1,0-.208Zm.725-.311a2.213,2.213,0,0,1,1.243.1,1.7,1.7,0,0,0,1.243.829,1.21,1.21,0,0,1,1.451.414c.207.311.622.829,1.243,1.658.207.518.311.829.311.829-.414.414-.829.622-1.036.518-.518.1-.932.1-1.14-.208-.829-.932-1.243-1.347-1.243-1.347h-.208l3.937,3.833a10.079,10.079,0,0,0,2.9-6.838h-8.6a.322.322,0,0,1-.1.208ZM98.534,86.67c.208.208.1.311.1.518,0,.1.208.311.311.414a3.046,3.046,0,0,1,.311,1.036,4.571,4.571,0,0,1-1.036.207,27.676,27.676,0,0,0,7.874,17.2l6.113-6.216a19.014,19.014,0,0,1-5.491-13.158H98.533Zm38.748-15.852a19.6,19.6,0,0,0,2.59-.311c.208-.414.622-.829.829-1.243.207-.311,0-.622.207-.829,1.036-.1,1.554.414,2.383.414l2.383-2.383A28.027,28.027,0,0,0,126.2,58.593v8.6a19.4,19.4,0,0,1,11.085,3.626Zm6.527-1.968c1.14,0,1.14-.829,2.175-.1.932.208,1.243.829,2.8,1.451a29.8,29.8,0,0,0-2.9-3.419l-2.072,2.072Zm1.347,16.266v1.14h8.91a28.033,28.033,0,0,0-3.108-12.536,2.415,2.415,0,0,1-.932.725,3.983,3.983,0,0,1-.829,3.315,4.859,4.859,0,0,1-2.28.414,3.035,3.035,0,0,1-.725,1.243c-.1.207-.622.414-1.347.725,0,0,.208.207.414,1.554l-.207.932c0,.829.1,1.554.1,2.486ZM141.84,86.67h-5.18a10.959,10.959,0,0,1-3,7.149l5.491,5.595A4.589,4.589,0,0,1,140.7,98.17,19.258,19.258,0,0,0,144.741,87.5c-.311.518-.518,1.036-1.14,1.14a9.995,9.995,0,0,1-1.761,0,11.808,11.808,0,0,1,0-1.968ZM126.091,58.178A28.337,28.337,0,1,1,97.7,86.463,28.343,28.343,0,0,1,126.091,58.178ZM145.154,86.67a19.089,19.089,0,0,1-3.73,11.19c.414-.1.622.1,1.036.311.311-.622.725-1.14,1.347-1.14,1.243-1.14,1.761-2.486,2.486-2.694,2.175.829,2.383,1.865,2.072,3.212-.1,1.243,2.176,1.969-.829,4.973a3.45,3.45,0,0,1,.1,1.761,27.816,27.816,0,0,0,6.424-17.613h-8.91Zm-12.018,17.613a19.694,19.694,0,0,1-6.941,1.347v8.807a27.453,27.453,0,0,0,13.262-3.419c-.414-3.315-.1-2.59-3.212-2.9-2.694-.207-2.8-1.554-3.108-3.833Zm-7.356,1.347a18.631,18.631,0,0,1-13.262-5.491l-6.216,6.113a28.111,28.111,0,0,0,19.478,8.185v-8.807Zm-7.563-11.811a10.377,10.377,0,0,1-2.9-7.149h-8.185a18.614,18.614,0,0,0,5.387,12.951Zm38.231-25.9h.1a1.813,1.813,0,0,0-.414-.518c-.932-3.626-5.7-5.284-8.392-7.356,2.072,2.694,4.869,6.838,8.288,7.459.1.1.311.208.414.414Zm2.383,4.144a11.067,11.067,0,0,1-1.347-5.595c-.518-2.694-1.036-3.419-3.212-5.906,6.63,4.455,6.527,8.081,6.527,17.3h-.1c-.518-3.108-3.73-4.869-6.113-6.32-1.451-.725-4.041-4.455-5.7-6.527,2.28,2.486,8.185,3.73,9.946,7.045Zm3.419,10.671a13.552,13.552,0,0,1,.518-6.113c.725-2.59.207-4.973-1.243-8.5,4.766,7.459,4.352,9.324.829,18.546h-.1c-.414-2.9-3-5.284-4.973-7.356-1.14-1.243-3.212-5.387-4.041-7.252,3.523,4.041,7.563,5.077,9.014,10.671Zm-3.833,5.906c-1.036-2.694-1.036-4.869-1.243-8.5,1.554,5.906,4.766,6.838,4.973,11.19.311-1.14.622-3.212,1.243-4.144,2.8-4.144,2.9-5.8,2.28-11.085,2.694,8.6,2.176,14.194-4.973,20.824h-.1c.829-3.833-1.036-5.8-2.176-8.288ZM159.038,102c.518-.725,2.383-3.937,2.9-4.558,4.455-4.041,4.455-4.041,5.7-9.946-.1,13.779-2.176,10.257-10.671,18.131-.1,0-.1,0-.1-.1,1.14-2.9.311-6.424-.311-9.428-.414-2.175.414-6.63.725-9.221.414,5.906,3.937,9.014,1.761,15.126Zm-7.045,3.108c.1-1.865,2.486-7.356,3.212-8.7-.932,6.009.622,10.568-3.108,15.541,1.347-1.14,3.108-3.419,4.455-4.144,6.63-3.937,7.459-3.626,10.879-10.257-4.352,15.126-6.424,11.707-19.375,18.027l-.1-.311c3.212-1.761,3.626-6.838,4.041-10.153Zm-7.978,8.5c2.383-4.663,2.8-5.491,6.838-9.532-3,5.7-3.108,13.158-10.671,15.126,5.906-1.14,8.392-3.73,12.018-4.041,5.491-1.036,7.149-1.658,11.6-5.8-8.185,11.5-10.671,9.946-24.45,10.05,1.658-.311,3.937-4.352,4.663-5.8Zm-6.216,6.63c7.874,2.072,11.293,1.554,17.82.414-6.735,4.766-11.5,3.73-18.337,2.8-3.833-.518-6.63-1.554-9.221-1.865a18.186,18.186,0,0,1,8.081,5.491c-.414.622-.414.1-.932.622-3.73-4.455-6.424-5.906-9.118-6.113-2.59.207-5.284,1.658-9.014,6.113-.622-.518-.518,0-1.036-.622a18.509,18.509,0,0,1,8.185-5.491c-2.59.311-5.387,1.347-9.324,1.865-6.735.932-11.5,1.969-18.234-2.8,6.527,1.14,9.946,1.658,17.82-.414a31.392,31.392,0,0,1,11.6.725,32.081,32.081,0,0,1,11.707-.725ZM93.455,72.061A12.288,12.288,0,0,0,94.8,66.466c.518-2.694,1.036-3.419,3.212-5.906-6.63,4.455-6.527,8.081-6.63,17.3h.207c.518-3.108,3.626-4.869,6.113-6.32,1.347-.725,4.041-4.455,5.595-6.527-2.175,2.486-8.185,3.73-9.842,7.045ZM90.037,82.732c.1-2.59.1-4.662-.518-6.113-.725-2.59-.208-4.973,1.243-8.5C86,75.583,86.41,77.448,89.933,86.67h.1c.311-2.9,2.9-5.284,4.973-7.356a34.434,34.434,0,0,0,3.937-7.252c-3.419,4.041-7.459,5.077-8.91,10.671Zm3.833,5.906c.932-2.694,1.036-4.869,1.243-8.5-1.658,5.906-4.869,6.838-4.973,11.189-.311-1.14-.622-3.212-1.243-4.144C86,83.044,86,81.386,86.514,76.1c-2.59,8.6-2.072,14.194,5.077,20.824-.725-3.833,1.14-5.8,2.28-8.288ZM93.248,102c-.518-.725-2.383-3.937-3-4.558-4.352-4.041-4.352-4.041-5.7-9.946.208,13.779,2.28,10.257,10.775,18.13v-.1c-1.036-2.9-.311-6.424.414-9.428.414-2.175-.414-6.63-.829-9.221-.414,5.906-3.833,9.014-1.658,15.126Zm7.045,3.108c-.1-1.865-2.59-7.356-3.315-8.7,1.036,6.009-.622,10.568,3.212,15.541-1.347-1.14-3.108-3.419-4.558-4.144-6.63-3.937-7.356-3.626-10.775-10.257,4.248,15.126,6.424,11.707,19.375,18.027l.1-.311c-3.212-1.761-3.626-6.838-4.041-10.153Zm7.978,8.5c-2.383-4.662-2.8-5.491-6.941-9.532,3.108,5.7,3.108,13.158,10.671,15.126-5.906-1.14-8.288-3.73-11.914-4.041-5.491-1.036-7.149-1.658-11.707-5.8,8.185,11.5,10.775,9.946,24.555,10.05-1.658-.311-3.937-4.352-4.663-5.8Z" transform="translate(-9.332)" fill="#f05423" fill-rule="evenodd"/>
  </g>
</svg>
