<svg xmlns="http://www.w3.org/2000/svg" width="72.757" height="77.607" viewBox="0 0 72.757 77.607">
  <g id="clima-cultura" transform="translate(-87.502)">
    <path id="Caminho_241" data-name="Caminho 241" d="M356.063,472.5h-2.425a3.638,3.638,0,1,0,0,7.276h2.425a3.638,3.638,0,1,0,0-7.276Zm0,4.851h-2.425a1.213,1.213,0,1,1,0-2.425h2.425a1.213,1.213,0,1,1,0,2.425Z" transform="translate(-226.12 -407.018)" fill="#f05423"/>
    <path id="Caminho_242" data-name="Caminho 242" d="M152.983,54.568V33.953h3.638a1.212,1.212,0,0,0,1.213-1.213V24.252a6.07,6.07,0,0,0-6.063-6.063h-.655a7.276,7.276,0,1,0-10.816,0h-.655a6,6,0,0,0-3.638,1.244V18.189a6.07,6.07,0,0,0-6.063-6.063h-.655a7.276,7.276,0,1,0-10.816,0h-.655a6.07,6.07,0,0,0-6.063,6.063v1.244a6,6,0,0,0-3.638-1.244h-.655a7.276,7.276,0,1,0-10.816,0H95.99a6.07,6.07,0,0,0-6.063,6.063v8.488a1.212,1.212,0,0,0,1.213,1.213h3.638V54.568H94.8A36.191,36.191,0,0,0,87.5,76.4a1.212,1.212,0,0,0,1.213,1.213h70.332a1.212,1.212,0,0,0,1.213-1.213,36.191,36.191,0,0,0-7.3-21.827ZM140.857,13.339a4.85,4.85,0,1,1,4.85,4.85A4.856,4.856,0,0,1,140.857,13.339Zm-1.213,7.276h12.126a3.642,3.642,0,0,1,3.638,3.638v7.276h-2.425V24.252h-2.425V51.7a36.888,36.888,0,0,0-3.638-3.432V33.953h-2.425v12.49q-1.179-.815-2.425-1.533v-.044h-.076c-.376-.217-.753-.429-1.136-.633V24.253h-2.425v7.276h-2.425V24.253a3.642,3.642,0,0,1,3.638-3.638Zm3.638,38.8H131.156a1.213,1.213,0,1,1,0-2.425h2.425a3.638,3.638,0,1,0,0-7.276h-6.063a1.213,1.213,0,0,1,0-2.425h13.826a34.054,34.054,0,0,1,15.695,21.827H140.857a1.213,1.213,0,0,1,0-2.425h2.425a3.638,3.638,0,0,0,0-7.276ZM131.156,27.89h2.425v4.85a1.212,1.212,0,0,0,1.213,1.213h3.638v9.109a36.032,36.032,0,0,0-7.276-2.315ZM119.03,7.276a4.85,4.85,0,1,1,4.85,4.85A4.856,4.856,0,0,1,119.03,7.276Zm-4.85,10.914a3.642,3.642,0,0,1,3.638-3.638h12.126a3.642,3.642,0,0,1,3.638,3.638v7.276h-2.425V18.189h-2.425V40.346c-.032,0-.067-.006-.1-.01q-1.048-.138-2.115-.214c-.115-.009-.231-.019-.345-.027-.358-.022-.717-.036-1.078-.049V27.89h-2.425V40.047c-.36.012-.721.027-1.078.049-.115.007-.231.018-.345.027q-1.066.076-2.115.214c-.032,0-.067.006-.1.01V18.189H116.6v7.276h-2.425Zm-4.85,24.873V33.953h3.638a1.212,1.212,0,0,0,1.213-1.213V27.89H116.6V40.749A36.037,36.037,0,0,0,109.329,43.063ZM97.2,13.339a4.85,4.85,0,1,1,4.85,4.85A4.856,4.856,0,0,1,97.2,13.339ZM94.777,24.252v7.276H92.352V24.252a3.642,3.642,0,0,1,3.638-3.638h12.126a3.642,3.642,0,0,1,3.638,3.638v7.276h-2.425V24.252H106.9V44.234a36.347,36.347,0,0,0-3.638,2.209V33.953h-2.425V48.266A36.632,36.632,0,0,0,97.2,51.7V24.252Zm-4.829,50.93a33.825,33.825,0,0,1,9.021-21.827l10.43,0a1.157,1.157,0,0,1,1.142,1.2,1.224,1.224,0,0,1-.357.87,1.192,1.192,0,0,1-.853.354H106.9a3.638,3.638,0,0,0,0,7.276H119.03a1.213,1.213,0,0,1,.006,2.425H99.622a3.638,3.638,0,0,0,.007,7.276h3.638a1.213,1.213,0,0,1,0,2.425Zm16.731,0a3.6,3.6,0,0,0,.223-1.213,3.642,3.642,0,0,0-3.638-3.638H99.627a1.213,1.213,0,0,1-.007-2.425h19.416a3.638,3.638,0,0,0-.007-7.276H106.9a1.213,1.213,0,0,1,0-2.425h2.431a3.6,3.6,0,0,0,2.572-1.068,3.678,3.678,0,0,0,1.062-2.644,3.571,3.571,0,0,0-3.567-3.566l-7.952,0a33.848,33.848,0,0,1,16.618-7.979q1.428-.245,2.846-.372l.137-.01a33.444,33.444,0,0,1,5.665,0l.137.01q1.419.126,2.846.372a33.738,33.738,0,0,1,6.769,1.916h-8.946a3.638,3.638,0,0,0,0,7.276h6.063a1.213,1.213,0,1,1,0,2.425h-2.425a3.638,3.638,0,1,0,0,7.276h12.126a1.213,1.213,0,0,1,0,2.425h-2.425a3.638,3.638,0,0,0,0,7.276h16.625a33.8,33.8,0,0,1,.33,3.638H106.68Z" transform="translate(0)" fill="#f05423"/>
  </g>
</svg>
