<svg xmlns="http://www.w3.org/2000/svg" xmlns:xlink="http://www.w3.org/1999/xlink" width="190.563" height="58.549" viewBox="0 0 190.563 58.549">
  <defs>
    <clipPath id="clip-path">
      <path id="Caminho_199" data-name="Caminho 199" d="M0,36.647H190.563V-21.9H0Z" transform="translate(0 21.902)" fill="#fff"/>
    </clipPath>
  </defs>
  <g id="Grupo_182" data-name="Grupo 182" clip-path="url(#clip-path)">
    <g id="Grupo_175" data-name="Grupo 175" transform="translate(126.534 8.297)">
      <path id="Caminho_192" data-name="Caminho 192" d="M13.481,0V14.9h-.115C11.875,12.893,8.9,12.15,5.633,12.15c-7.218,0-13.748,5.614-13.69,15.007,0,9.394,6.413,14.553,13,14.553,3.494,0,7.274-1.206,9.394-4.756h.118l.4,4.066h9.68c-.112-1.489-.23-5.213-.23-8.88V0Zm0,27.213a11.122,11.122,0,0,1-.115,1.951,4.774,4.774,0,0,1-4.753,4.007C5.347,33.172,3,30.825,3,26.756,3,23.2,4.772,20.167,8.67,20.167a4.811,4.811,0,0,1,4.753,4.01,9.1,9.1,0,0,1,.059,1.264Z" transform="translate(8.057)" fill="#fff"/>
    </g>
    <g id="Grupo_176" data-name="Grupo 176" transform="translate(161.921 20.447)">
      <path id="Caminho_193" data-name="Caminho 193" d="M17.642,7.78c0-7.563-4.127-12.43-13.8-12.43A26.723,26.723,0,0,0-8.483-2.017L-6.59,4.744A19.57,19.57,0,0,1,1.945,2.509c4.24,0,4.924,1.262,4.924,2.291v.174c-10.655,0-17.413,3.494-17.413,11.056,0,4.582,3.665,8.878,9.853,8.878,3.208,0,6.189-.8,8.25-3.093h.227l.572,2.406H18.1a40.435,40.435,0,0,1-.454-6.988ZM7.214,13.049A6.767,6.767,0,0,1,7.1,14.6a4.169,4.169,0,0,1-3.836,2.922c-2,0-3.1-.917-3.1-2.521C.168,12.7,2.456,11.5,7.214,11.5Z" transform="translate(10.544 4.65)" fill="#fff"/>
    </g>
    <g id="Grupo_177" data-name="Grupo 177" transform="translate(0.001 19.891)">
      <path id="Caminho_194" data-name="Caminho 194" d="M.146,6.564c0-4.013-.112-7.279-.233-9.8h9l.4,3.609h.233a10.192,10.192,0,0,1,8.824-4.3c3.662,0,6.755,1.719,8.076,4.756h.112A12.8,12.8,0,0,1,30.738-2.72a11.449,11.449,0,0,1,5.33-1.2c6.242,0,10.252,4.352,10.252,12.6V24.953H35.895V10.285c0-3.665-1.259-5.611-3.726-5.611a3.55,3.55,0,0,0-3.435,2.577,7.544,7.544,0,0,0-.286,2.173V24.953H18.021V10.285c0-3.665-1.262-5.611-3.724-5.611A3.657,3.657,0,0,0,10.86,7.192a5.674,5.674,0,0,0-.289,2.123V24.953H.146Z" transform="translate(0.087 3.923)" fill="#fff"/>
    </g>
    <g id="Grupo_178" data-name="Grupo 178" transform="translate(49.003 19.893)">
      <path id="Caminho_195" data-name="Caminho 195" d="M10.146,18.5c9.054,0,16.44-5.5,16.44-15.122a14.709,14.709,0,0,0-1.12-5.747c-2.237-5.3-7.648-8.691-14.689-8.691-10.829,0-16.841,6.416-16.841,15.01,0,9.281,7.389,14.55,16.154,14.55Zm.115-7.5c-3.5,0-5.1-3.267-5.1-7.274,0-3.668,1.377-7.277,5.157-7.277,3.438,0,4.927,3.323,4.927,7.277,0,4.7-1.834,7.274-4.927,7.274Z" transform="translate(6.064 11.058)" fill="#fff"/>
    </g>
    <g id="Grupo_179" data-name="Grupo 179" transform="translate(80.11 20.579)">
      <path id="Caminho_196" data-name="Caminho 196" d="M7.387,0l3.55,12.2a54.33,54.33,0,0,1,1.377,6.13h.23c.345-2.064.687-3.954,1.259-6.13L17.011,0H28.583L17.471,28.189H6.355L-4.415,0Z" transform="translate(4.415)" fill="#fff"/>
    </g>
    <g id="Grupo_180" data-name="Grupo 180" transform="translate(113.695 10.591)">
      <path id="Caminho_197" data-name="Caminho 197" d="M9.459,27.392A31.117,31.117,0,0,1,3.011,8.378c0-7.9,1.652-15.1,6.488-20.6l-7.72-4.149c-5.387,6.8-7.432,15.4-7.432,24.749A39.761,39.761,0,0,0,1.781,31.587Z" transform="translate(5.653 16.371)" fill="#fff"/>
    </g>
    <g id="Grupo_181" data-name="Grupo 181" transform="translate(123.29 -0.002)">
      <path id="Caminho_198" data-name="Caminho 198" d="M6.981,3.489A5.576,5.576,0,1,1,1.407-2.085,5.574,5.574,0,0,1,6.981,3.489" transform="translate(4.172 2.085)" fill="#fff"/>
    </g>
  </g>
</svg>
