<svg xmlns="http://www.w3.org/2000/svg" xmlns:xlink="http://www.w3.org/1999/xlink" width="97.643" height="30" viewBox="0 0 97.643 30">
  <defs>
    <clipPath id="clip-path">
      <path id="Caminho_8" data-name="Caminho 8" d="M0,8.1H97.643v-30H0Z" transform="translate(0 21.902)" fill="#f05423"/>
    </clipPath>
  </defs>
  <g id="Logo_Movida" data-name="Logo Movida" transform="translate(0 21.902)">
    <g id="Grupo_8" data-name="Grupo 8" transform="translate(0 -21.902)" clip-path="url(#clip-path)">
      <g id="Grupo_1" data-name="Grupo 1" transform="translate(64.835 4.251)">
        <path id="Caminho_1" data-name="Caminho 1" d="M2.979,0V7.635H2.92C2.156,6.606.631,6.225-1.043,6.225c-3.7,0-7.045,2.876-7.014,7.69,0,4.813,3.286,7.457,6.662,7.457a5.359,5.359,0,0,0,4.813-2.437h.06l.205,2.083h4.96c-.058-.763-.118-2.671-.118-4.55V0Zm0,13.944a5.7,5.7,0,0,1-.059,1A2.446,2.446,0,0,1,.485,17c-1.674,0-2.878-1.2-2.878-3.287,0-1.82.91-3.376,2.907-3.376a2.465,2.465,0,0,1,2.435,2.055,4.664,4.664,0,0,1,.03.648Z" transform="translate(8.057)" fill="#f05423"/>
      </g>
      <g id="Grupo_2" data-name="Grupo 2" transform="translate(82.967 10.477)">
        <path id="Caminho_2" data-name="Caminho 2" d="M3.9,1.719C3.9-2.156,1.784-4.65-3.175-4.65A13.692,13.692,0,0,0-9.488-3.3l.97,3.464A10.027,10.027,0,0,1-4.145-.982c2.172,0,2.523.647,2.523,1.174V.281c-5.46,0-8.922,1.79-8.922,5.665,0,2.348,1.878,4.549,5.049,4.549A5.436,5.436,0,0,0-1.268,8.91h.116l.293,1.233h4.99A20.718,20.718,0,0,1,3.9,6.563Zm-5.343,2.7a3.467,3.467,0,0,1-.059.793,2.136,2.136,0,0,1-1.966,1.5c-1.027,0-1.586-.47-1.586-1.292,0-1.175,1.172-1.79,3.611-1.79Z" transform="translate(10.544 4.65)" fill="#f05423"/>
      </g>
      <g id="Grupo_3" data-name="Grupo 3" transform="translate(0.001 10.192)">
        <path id="Caminho_3" data-name="Caminho 3" d="M.032,1.45c0-2.056-.058-3.73-.119-5.021H4.522l.205,1.849h.119a5.222,5.222,0,0,1,4.522-2.2,4.3,4.3,0,0,1,4.138,2.437h.058a6.556,6.556,0,0,1,2.144-1.82,5.866,5.866,0,0,1,2.731-.616c3.2,0,5.253,2.23,5.253,6.458v8.338H18.35V3.357C18.35,1.479,17.7.482,16.44.482A1.819,1.819,0,0,0,14.68,1.8a3.866,3.866,0,0,0-.147,1.114v7.957H9.192V3.357c0-1.878-.647-2.875-1.908-2.875a1.874,1.874,0,0,0-1.761,1.29A2.907,2.907,0,0,0,5.374,2.86v8.013H.032Z" transform="translate(0.087 3.923)" fill="#f05423"/>
      </g>
      <g id="Grupo_4" data-name="Grupo 4" transform="translate(25.109 10.193)">
        <path id="Caminho_4" data-name="Caminho 4" d="M2.242,4.089c4.639,0,8.424-2.818,8.424-7.749A7.537,7.537,0,0,0,10.092-6.6c-1.146-2.718-3.919-4.453-7.527-4.453-5.549,0-8.629,3.287-8.629,7.691,0,4.756,3.786,7.455,8.277,7.455ZM2.3.244C.509.244-.312-1.43-.312-3.483c0-1.879.705-3.728,2.642-3.728,1.761,0,2.524,1.7,2.524,3.728,0,2.407-.94,3.727-2.524,3.727Z" transform="translate(6.064 11.058)" fill="#f05423"/>
      </g>
      <g id="Grupo_5" data-name="Grupo 5" transform="translate(41.047 10.544)">
        <path id="Caminho_5" data-name="Caminho 5" d="M1.632,0,3.451,6.253a27.838,27.838,0,0,1,.705,3.141h.118c.177-1.057.352-2.026.645-3.141L6.563,0h5.93L6.8,14.444H1.1L-4.415,0Z" transform="translate(4.415)" fill="#f05423"/>
      </g>
      <g id="Grupo_6" data-name="Grupo 6" transform="translate(58.256 5.427)">
        <path id="Caminho_6" data-name="Caminho 6" d="M2.09,6.053a15.944,15.944,0,0,1-3.3-9.743c0-4.049.846-7.735,3.324-10.555l-3.956-2.126C-4.605-12.885-5.653-8.48-5.653-3.69A20.373,20.373,0,0,0-1.844,8.2Z" transform="translate(5.653 16.371)" fill="#f05423"/>
      </g>
      <g id="Grupo_7" data-name="Grupo 7" transform="translate(63.173 -0.001)">
        <path id="Caminho_7" data-name="Caminho 7" d="M1.543.771A2.856,2.856,0,0,1-1.313,3.628,2.856,2.856,0,0,1-4.172.771,2.857,2.857,0,0,1-1.313-2.085,2.857,2.857,0,0,1,1.543.771" transform="translate(4.172 2.085)" fill="#f05423"/>
      </g>
    </g>
  </g>
</svg>
